<?xml version="1.0" encoding="utf-8"?>
<!-- Generator: Adobe Illustrator 16.0.0, SVG Export Plug-In . SVG Version: 6.00 Build 0)  -->
<!DOCTYPE svg PUBLIC "-//W3C//DTD SVG 1.1//EN" "http://www.w3.org/Graphics/SVG/1.1/DTD/svg11.dtd">
<svg version="1.1" id="Layer_1" xmlns="http://www.w3.org/2000/svg" xmlns:xlink="http://www.w3.org/1999/xlink" x="0px" y="0px"
	 width="1000px" height="500px" viewBox="0 0 1000 500" enable-background="new 0 0 1000 500" xml:space="preserve">
<path fill="#FFFFFF" d="M1000,450c0,27.613-22.386,50-50,50H50c-27.614,0-50-22.387-50-50V50C0,22.386,22.386,0,50,0h900
	c27.614,0,50,22.386,50,50V450z"/>
<g>
	<linearGradient id="SVGID_1_" gradientUnits="userSpaceOnUse" x1="196.8745" y1="95.4258" x2="196.8745" y2="431.2429">
		<stop  offset="0" style="stop-color:#8BC53F"/>
		<stop  offset="1" style="stop-color:#009345"/>
	</linearGradient>
	<path fill="url(#SVGID_1_)" d="M295.647,209.468l27.212-154.327l-49.021,26.6l-22.521,127.727l-4.043,22.932h-49.778
		c-15.378,0-30.774,3.213-45.774,9.554c-14.488,6.125-27.823,14.823-39.637,25.85c-20.888,19.49-34.932,44.638-39.55,70.825
		c-4.616,26.182,0.558,51.336,14.574,70.819c7.923,11.032,18.191,19.73,30.519,25.855c12.765,6.341,27.027,9.556,42.405,9.556
		h103.915l34.41-44.324h-36.401L295.647,209.468z M217.626,400.535h-49.778c-34.135,0-57.008-27.771-50.99-61.906
		c6.019-34.136,38.686-61.905,72.821-61.905h49.777L217.626,400.535z"/>
	<g>
		
			<linearGradient id="SVGID_2_" gradientUnits="userSpaceOnUse" x1="613.7305" y1="235.2466" x2="613.7305" y2="439.5181" gradientTransform="matrix(1 0 -0.1763 1 -133.7939 0)">
			<stop  offset="0" style="stop-color:#8BC53F"/>
			<stop  offset="1" style="stop-color:#009345"/>
		</linearGradient>
		<path fill="url(#SVGID_2_)" d="M428.514,235.247c-25.271,0-47.811,9.316-68.905,28.481
			c-20.955,19.039-34.265,43.921-39.561,73.953c-5.093,28.886-0.178,53.339,14.61,72.683c14.915,19.509,34.337,28.993,59.375,28.993
			c10.966,0,21.611-1.973,31.64-5.865c10.082-3.911,20.811-10.47,31.892-19.493l12.141-9.887l-6.243,35.406h39.334l35.612-201.966
			h-39.335l-6.092,34.553l-8.654-10.693c-7.061-8.723-15.348-15.339-24.632-19.667C450.445,237.433,439.953,235.247,428.514,235.247
			z M474.5,289.143c9.62,12.235,12.756,28.312,9.323,47.781c-3.496,19.828-12.338,36.178-26.282,48.594
			c-14.046,12.512-30.244,18.857-48.144,18.857c-17.408,0-31.137-6.448-40.803-19.164c-9.577-12.598-12.707-28.78-9.301-48.099
			c3.383-19.185,12.095-35.207,25.895-47.623c13.932-12.528,29.95-18.882,47.609-18.882
			C450.798,270.607,464.828,276.844,474.5,289.143z"/>
		
			<linearGradient id="SVGID_3_" gradientUnits="userSpaceOnUse" x1="773.083" y1="169.9116" x2="773.083" y2="439.8657" gradientTransform="matrix(1 0 -0.1763 1 -133.7939 0)">
			<stop  offset="0" style="stop-color:#8BC53F"/>
			<stop  offset="1" style="stop-color:#009345"/>
		</linearGradient>
		<polygon fill="url(#SVGID_3_)" points="542.069,439.865 581.404,439.864 629.004,169.912 589.67,169.912 		"/>
		
			<linearGradient id="SVGID_4_" gradientUnits="userSpaceOnUse" x1="851.752" y1="169.9116" x2="851.752" y2="439.8647" gradientTransform="matrix(1 0 -0.1763 1 -133.7939 0)">
			<stop  offset="0" style="stop-color:#8BC53F"/>
			<stop  offset="1" style="stop-color:#009345"/>
		</linearGradient>
		<polygon fill="url(#SVGID_4_)" points="620.739,439.864 660.072,439.864 707.673,169.912 668.338,169.912 		"/>
		
			<linearGradient id="SVGID_5_" gradientUnits="userSpaceOnUse" x1="1009.9395" y1="235.248" x2="1009.9395" y2="439.5181" gradientTransform="matrix(1 0 -0.1763 1 -133.7939 0)">
			<stop  offset="0" style="stop-color:#8BC53F"/>
			<stop  offset="1" style="stop-color:#009345"/>
		</linearGradient>
		<path fill="url(#SVGID_5_)" d="M855.906,241.745c-9.253-4.311-19.745-6.497-31.184-6.497c-25.271,0-47.81,9.315-68.904,28.479
			c-20.955,19.039-34.266,43.921-39.561,73.953c-5.093,28.886-0.178,53.339,14.609,72.683c14.917,19.51,34.338,28.993,59.376,28.993
			c10.969,0,21.612-1.973,31.641-5.864c10.082-3.912,20.811-10.471,31.891-19.492l12.141-9.886l-6.243,35.403h39.333l35.613-201.966
			h-39.333l-6.093,34.553l-8.654-10.693C873.478,252.688,865.189,246.072,855.906,241.745z M880.033,336.924
			c-3.496,19.828-12.339,36.178-26.281,48.594c-14.046,12.512-30.244,18.857-48.146,18.857c-17.407,0-31.136-6.448-40.803-19.164
			c-9.578-12.599-12.706-28.781-9.301-48.099c3.383-19.185,12.097-35.207,25.895-47.621c13.932-12.53,29.95-18.884,47.609-18.884
			c18,0,32.031,6.236,41.703,18.535C880.329,301.378,883.466,317.454,880.033,336.924z"/>
	</g>
	<g>
		<path fill="none" d="M116.858,338.629c-6.019,34.136,16.855,61.906,50.99,61.906h49.778l21.831-123.812H189.68
			C155.544,276.724,122.877,304.493,116.858,338.629z"/>
		<linearGradient id="SVGID_6_" gradientUnits="userSpaceOnUse" x1="276.4604" y1="95.4258" x2="276.4604" y2="431.2422">
			<stop  offset="0" style="stop-color:#8BC53F"/>
			<stop  offset="1" style="stop-color:#009345"/>
		</linearGradient>
		<polygon fill="url(#SVGID_6_)" points="302.533,170.417 258.203,170.417 251.317,209.468 250.388,214.74 294.717,214.74 
			295.647,209.468 		"/>
		<polygon opacity="0.3" fill="#231F20" points="302.533,170.417 258.203,170.417 251.317,209.468 250.388,214.74 294.717,214.74 
			295.647,209.468 		"/>
		<linearGradient id="SVGID_7_" gradientUnits="userSpaceOnUse" x1="286.707" y1="95.4258" x2="286.707" y2="431.2432">
			<stop  offset="0" style="stop-color:#8BC53F"/>
			<stop  offset="1" style="stop-color:#009345"/>
		</linearGradient>
		<polygon fill="url(#SVGID_7_)" points="312.791,112.242 268.461,112.242 260.624,156.688 304.954,156.688 		"/>
		<polygon opacity="0.3" fill="#231F20" points="312.791,112.242 268.461,112.242 260.624,156.688 304.954,156.688 		"/>
	</g>
	
		<linearGradient id="SVGID_8_" gradientUnits="userSpaceOnUse" x1="336.3359" y1="187.1865" x2="554.2559" y2="187.1865" gradientTransform="matrix(1 0 -0.1763 1 -133.7939 0)">
		<stop  offset="0" style="stop-color:#8BC53F"/>
		<stop  offset="1" style="stop-color:#009345"/>
	</linearGradient>
	<polygon fill="url(#SVGID_8_)" points="391.368,165.025 356.958,209.349 165.634,209.349 200.042,165.025 	"/>
	
		<linearGradient id="SVGID_9_" gradientUnits="userSpaceOnUse" x1="336.4785" y1="129.0728" x2="554.2578" y2="129.0728" gradientTransform="matrix(1 0 -0.1763 1 -133.7939 0)">
		<stop  offset="0" style="stop-color:#8BC53F"/>
		<stop  offset="1" style="stop-color:#009345"/>
	</linearGradient>
	<polygon fill="url(#SVGID_9_)" points="210.302,106.85 176.011,151.296 367.335,151.296 401.626,106.85 	"/>
</g>
</svg>
