<?xml version="1.0" encoding="utf-8"?>
<!-- Generator: Adobe Illustrator 16.0.0, SVG Export Plug-In . SVG Version: 6.00 Build 0)  -->
<!DOCTYPE svg PUBLIC "-//W3C//DTD SVG 1.1//EN" "http://www.w3.org/Graphics/SVG/1.1/DTD/svg11.dtd">
<svg version="1.1" id="Layer_1" xmlns="http://www.w3.org/2000/svg" xmlns:xlink="http://www.w3.org/1999/xlink" x="0px" y="0px"
	 width="1000px" height="1000px" viewBox="0 0 1000 1000" enable-background="new 0 0 1000 1000" xml:space="preserve">
<g>
	<radialGradient id="SVGID_1_" cx="500" cy="515" r="440.7896" gradientUnits="userSpaceOnUse">
		<stop  offset="0" style="stop-color:#39B54A"/>
		<stop  offset="0.3814" style="stop-color:#37B349"/>
		<stop  offset="0.5721" style="stop-color:#32AB48"/>
		<stop  offset="0.7204" style="stop-color:#289E45"/>
		<stop  offset="0.847" style="stop-color:#1A8B40"/>
		<stop  offset="0.9585" style="stop-color:#08733B"/>
		<stop  offset="1" style="stop-color:#006838"/>
	</radialGradient>
	<circle fill="url(#SVGID_1_)" cx="500" cy="515" r="440.79"/>
	<g>
		<g>
			<radialGradient id="SVGID_2_" cx="500" cy="485" r="440.7896" gradientUnits="userSpaceOnUse">
				<stop  offset="0" style="stop-color:#8BC53F"/>
				<stop  offset="0.3247" style="stop-color:#89C43F"/>
				<stop  offset="0.4871" style="stop-color:#81C23F"/>
				<stop  offset="0.6134" style="stop-color:#74BD40"/>
				<stop  offset="0.7212" style="stop-color:#61B641"/>
				<stop  offset="0.8172" style="stop-color:#49AE41"/>
				<stop  offset="0.9046" style="stop-color:#2BA342"/>
				<stop  offset="0.9841" style="stop-color:#089744"/>
				<stop  offset="1" style="stop-color:#009444"/>
			</radialGradient>
			<circle fill="url(#SVGID_2_)" cx="500" cy="485" r="440.79"/>
			<radialGradient id="SVGID_3_" cx="500" cy="485" r="375.6963" gradientUnits="userSpaceOnUse">
				<stop  offset="0" style="stop-color:#8BC53F"/>
				<stop  offset="0.3247" style="stop-color:#89C43F"/>
				<stop  offset="0.4871" style="stop-color:#81C23F"/>
				<stop  offset="0.6134" style="stop-color:#74BD40"/>
				<stop  offset="0.7212" style="stop-color:#61B641"/>
				<stop  offset="0.8172" style="stop-color:#49AE41"/>
				<stop  offset="0.9046" style="stop-color:#2BA342"/>
				<stop  offset="0.9841" style="stop-color:#089744"/>
				<stop  offset="1" style="stop-color:#009444"/>
			</radialGradient>
			<path fill="url(#SVGID_3_)" d="M846.17,338.761c-18.923-44.734-46.005-84.914-80.513-119.418
				c-34.501-34.508-74.683-61.596-119.419-80.517c-46.315-19.59-95.518-29.522-146.24-29.522c-50.721,0-99.921,9.933-146.234,29.522
				c-44.738,18.921-84.917,46.009-119.426,80.517c-34.502,34.504-61.586,74.684-80.514,119.418
				C134.23,385.075,124.304,434.276,124.304,485c0,50.721,9.927,99.923,29.521,146.235c18.928,44.74,46.012,84.918,80.514,119.422
				c34.509,34.5,74.688,61.594,119.426,80.513c46.313,19.594,95.514,29.526,146.234,29.526c50.723,0,99.925-9.933,146.24-29.526
				c44.736-18.919,84.918-46.013,119.419-80.513c34.508-34.504,61.59-74.682,80.513-119.422
				c19.594-46.313,29.526-95.515,29.526-146.235C875.696,434.276,865.764,385.075,846.17,338.761z"/>
			<linearGradient id="SVGID_4_" gradientUnits="userSpaceOnUse" x1="218.0615" y1="767.8223" x2="842.3275" y2="141.5919">
				<stop  offset="0" style="stop-color:#8BC53F"/>
				<stop  offset="0.5" style="stop-color:#009444"/>
				<stop  offset="1" style="stop-color:#8BC53F"/>
			</linearGradient>
			<path fill="url(#SVGID_4_)" d="M794.256,360.691c-16.088-38.024-39.108-72.18-68.439-101.508
				c-29.328-29.335-63.48-52.36-101.51-68.442c-39.369-16.651-81.191-25.095-124.311-25.095c-43.113,0-84.934,8.443-124.305,25.095
				c-38.027,16.082-72.18,39.107-101.514,68.442c-29.329,29.328-52.351,63.483-68.438,101.508
				c-16.655,39.366-25.093,81.19-25.093,124.309c0,43.114,8.438,84.937,25.093,124.305c16.088,38.031,39.109,72.18,68.438,101.512
				c29.334,29.327,63.486,52.354,101.514,68.44c39.371,16.655,81.191,25.097,124.305,25.097c43.119,0,84.941-8.441,124.311-25.097
				c38.029-16.086,72.182-39.113,101.51-68.44c29.331-29.332,52.352-63.48,68.439-101.512
				c16.654-39.368,25.098-81.19,25.098-124.305C819.354,441.882,810.91,400.058,794.256,360.691z"/>
			<g>
				<defs>
					<path id="SVGID_5_" d="M205.742,609.31c16.087,38.024,39.107,72.18,68.439,101.508c29.329,29.336,63.48,52.36,101.51,68.442
						c39.369,16.652,81.191,25.096,124.311,25.097c43.113,0,84.934-8.444,124.305-25.095c38.027-16.083,72.18-39.107,101.515-68.443
						c29.328-29.328,52.351-63.483,68.438-101.508c16.654-39.366,25.092-81.191,25.092-124.309
						c0-43.113-8.437-84.938-25.092-124.306c-16.09-38.031-39.11-72.18-68.439-101.512c-29.335-29.329-63.486-52.354-101.515-68.442
						c-39.37-16.655-81.19-25.096-124.304-25.098c-43.121,0.002-84.942,8.442-124.312,25.099
						c-38.028,16.085-72.181,39.113-101.509,68.44c-29.332,29.331-52.354,63.479-68.439,101.512
						c-16.654,39.367-25.099,81.19-25.099,124.305C180.645,528.119,189.088,569.943,205.742,609.31z"/>
				</defs>
				<clipPath id="SVGID_6_">
					<use xlink:href="#SVGID_5_"  overflow="visible"/>
				</clipPath>
				<g clip-path="url(#SVGID_6_)">
					<polyline fill="none" stroke="#FFFFFF" stroke-miterlimit="10" points="494.765,346.166 458.023,346.166 444.139,357.827 
						411.887,357.827 396.373,346.162 357.182,346.163 350.623,346.163 298.976,299.928 216.715,299.928 					"/>
					<polyline fill="none" stroke="#FFFFFF" stroke-miterlimit="10" points="491.471,337.589 457.154,337.59 443.07,327.179 
						395.303,327.18 377.34,337.59 357.436,337.59 302.32,288.293 223.172,288.293 					"/>
					<polyline fill="none" stroke="#FFFFFF" stroke-miterlimit="10" points="469.402,245.321 425.973,245.322 402.449,293.804 
						357.438,293.805 344.041,281.756 					"/>
					<polyline fill="none" stroke="#FFFFFF" stroke-miterlimit="10" points="509.311,273.904 466.135,273.904 449.297,302.681 
						357.436,302.682 332.691,280.322 					"/>
					<polyline fill="none" stroke="#FFFFFF" stroke-miterlimit="10" points="519.719,311.564 499.459,311.563 488.588,299.928 
						463.381,299.928 451.438,311.564 357.434,311.563 320.974,278.407 					"/>
					<polyline fill="none" stroke="#FFFFFF" stroke-miterlimit="10" points="495.939,319.832 462.156,319.832 449.905,315.541 
						390.81,315.541 380.096,319.832 357.182,319.832 313.322,280.322 					"/>
					<polyline fill="none" stroke="#FFFFFF" stroke-miterlimit="10" points="514.922,328.863 467.158,328.864 448.682,319.832 
						393.264,319.832 377.26,328.863 357.434,328.709 302.8,280.322 225.086,280.321 					"/>
					<polyline fill="none" stroke="#FFFFFF" stroke-miterlimit="10" points="516.352,398.218 492.416,398.217 472.923,376.783 
						406.119,376.783 380.709,363.308 357.434,363.309 348.254,363.309 296.715,315.541 221.496,315.54 					"/>
					<polyline fill="none" stroke="#FFFFFF" stroke-miterlimit="10" points="474.711,398.218 466.748,391.174 448.072,391.174 
						438.578,382.297 400.609,382.296 378.563,372.803 357.436,372.803 344.04,372.803 294.67,324.347 219.207,324.347 					"/>
					<polyline fill="none" stroke="#FFFFFF" stroke-miterlimit="10" points="464.911,441.082 416.073,441.081 375.907,398.218 
						357.436,398.217 336.995,398.217 287.499,347.758 193.172,347.758 					"/>
					<polyline fill="none" stroke="#FFFFFF" stroke-miterlimit="10" points="500.738,412.304 447.612,412.303 431.075,392.399 
						402.752,392.399 377.339,381.3 357.434,381.299 341.775,381.3 293.008,333.408 221.496,333.408 					"/>
					<polyline fill="none" stroke="#FFFFFF" stroke-miterlimit="10" points="476.445,424.855 440.109,424.855 425.973,398.217 
						400.102,398.218 377.949,390.255 357.436,390.254 339.148,390.253 289.889,341.774 190.063,341.774 					"/>
					<polyline fill="none" stroke="#FFFFFF" stroke-miterlimit="10" points="521.402,328.863 590.482,328.864 604.831,354.463 
						665.686,354.464 					"/>
					<g>
						<path fill="#FFFFFF" d="M522.93,405.255c-3.885-0.001-7.036-3.149-7.035-7.037c-0.001-3.888,3.15-7.038,7.035-7.036
							c3.889,0,7.043,3.149,7.041,7.036C529.972,402.104,526.818,405.255,522.93,405.255z"/>
						<path fill="#FFFFFF" d="M471.949,448.125c-3.887,0-7.037-3.152-7.038-7.043c0.001-3.885,3.15-7.035,7.038-7.034
							c3.887,0,7.039,3.15,7.039,7.035C478.988,444.974,475.836,448.125,471.949,448.125z"/>
						<path fill="#FFFFFF" d="M526.762,318.601c-3.887-0.002-7.036-3.151-7.037-7.035c0-3.89,3.15-7.04,7.037-7.04
							c3.889,0.001,7.041,3.15,7.041,7.04C533.803,315.448,530.652,318.601,526.762,318.601z"/>
						<circle fill="#FFFFFF" cx="534.111" cy="357.827" r="7.038"/>
						<circle fill="#FFFFFF" cx="413.308" cy="357.983" r="7.038"/>
						<circle fill="#FFFFFF" cx="357.319" cy="337.59" r="7.039"/>
						<path fill="#FFFFFF" d="M443.238,335.916c-3.887,0.001-7.039-3.151-7.039-7.041c0-3.885,3.15-7.037,7.037-7.037
							c3.888,0.002,7.039,3.152,7.039,7.038C450.275,332.764,447.123,335.916,443.238,335.916z"/>
						<path fill="#FFFFFF" d="M502.98,415.823c-1.943,0-3.521-1.576-3.521-3.52c-0.001-1.947,1.577-3.521,3.521-3.521
							c1.945,0,3.521,1.574,3.523,3.521C506.504,414.247,504.926,415.822,502.98,415.823z"/>
						<path fill="#FFFFFF" d="M425.973,401.736c-1.942,0.001-3.521-1.576-3.521-3.52c0-1.948,1.578-3.522,3.521-3.523
							c1.945,0,3.523,1.576,3.523,3.524C429.496,400.16,427.918,401.736,425.973,401.736z"/>
						<path fill="#FFFFFF" d="M498.287,323.352c-1.943-0.001-3.522-1.577-3.522-3.52c0.001-1.944,1.579-3.522,3.523-3.523
							c1.942,0,3.519,1.578,3.519,3.522S500.23,323.352,498.287,323.352z"/>
						<path fill="#FFFFFF" d="M492.42,341.108c-1.943,0.001-3.521-1.576-3.521-3.519c0-1.945,1.577-3.523,3.52-3.523
							c1.947,0.001,3.523,1.578,3.521,3.524C495.94,339.531,494.365,341.107,492.42,341.108z"/>
						<circle fill="#FFFFFF" cx="340.52" cy="390.254" r="3.521"/>
						<path fill="#FFFFFF" d="M450.275,306.201c-1.945,0-3.521-1.578-3.521-3.52c-0.001-1.944,1.575-3.521,3.521-3.521
							c1.941,0,3.52,1.577,3.52,3.521C453.795,304.623,452.219,306.201,450.275,306.201z"/>
						<path fill="#FFFFFF" d="M481.895,427.804c-1.626,1.064-3.807,0.609-4.873-1.02c-1.067-1.626-0.61-3.809,1.016-4.871
							c1.627-1.066,3.812-0.612,4.875,1.013C483.976,424.556,483.522,426.739,481.895,427.804z"/>
						<circle fill="#FFFFFF" cx="477.504" cy="400.323" r="3.521"/>
						<path fill="#FFFFFF" d="M402.752,297.213c-1.946,0-3.523-1.574-3.523-3.518c0.001-1.947,1.574-3.522,3.523-3.522
							c1.943,0.001,3.52,1.575,3.518,3.522C406.271,295.64,404.695,297.212,402.752,297.213z"/>
						<circle fill="#FFFFFF" cx="298.731" cy="299.161" r="3.521"/>
						<circle fill="#FFFFFF" cx="416.52" cy="441.241" r="3.521"/>
						<circle fill="#FFFFFF" cx="505.658" cy="297.216" r="3.521"/>
						<circle fill="#FFFFFF" cx="517.883" cy="328.864" r="3.522"/>
						<circle fill="#FFFFFF" cx="498.287" cy="346.167" r="3.521"/>
					</g>
				</g>
				<g clip-path="url(#SVGID_6_)">
					<defs>
						<path id="SVGID_7_" d="M794.256,360.69c-16.086-38.024-39.108-72.18-68.439-101.508c-29.33-29.336-63.48-52.36-101.51-68.442
							c-39.369-16.652-81.191-25.096-124.311-25.097c-43.115,0-84.935,8.444-124.305,25.095
							c-38.027,16.083-72.181,39.107-101.516,68.443c-29.328,29.328-52.35,63.483-68.438,101.508
							c-16.654,39.366-25.092,81.191-25.094,124.309c0.002,43.113,8.438,84.938,25.094,124.306
							c16.09,38.031,39.109,72.18,68.439,101.512c29.335,29.329,63.486,52.354,101.515,68.442
							c39.37,16.655,81.19,25.096,124.304,25.098c43.121-0.002,84.942-8.443,124.312-25.099
							c38.028-16.085,72.181-39.113,101.509-68.441c29.332-29.331,52.354-63.479,68.439-101.512
							c16.654-39.366,25.1-81.19,25.1-124.304C819.354,441.881,810.91,400.057,794.256,360.69z"/>
					</defs>
					<clipPath id="SVGID_8_">
						<use xlink:href="#SVGID_7_"  overflow="visible"/>
					</clipPath>
					<g clip-path="url(#SVGID_8_)">
						<polyline fill="none" stroke="#FFFFFF" stroke-miterlimit="10" points="733.973,251.58 733.974,467.218 733.973,503.956 
							745.639,517.841 745.64,550.092 733.973,565.607 733.974,604.8 755.199,618.783 829.053,618.783 						"/>
						<polyline fill="none" stroke="#FFFFFF" stroke-miterlimit="10" points="502.428,201.842 720.194,201.843 745.639,241.354 
							745.639,499.521 759.082,516.055 759.08,553.72 743.158,578.212 743.158,604.545 756.152,613.156 828.896,613.156 						"/>
						<polyline fill="none" stroke="#FFFFFF" stroke-miterlimit="10" points="599.023,213.32 712.16,213.321 725.401,241.061 
							725.402,473.395 725.4,504.826 714.991,518.913 714.991,566.678 725.401,584.643 725.401,604.543 752.803,626.746 
							835.934,626.746 						"/>
						<polyline fill="none" stroke="#FFFFFF" stroke-miterlimit="10" points="599.023,275.492 667.531,275.493 667.531,408.932 
							633.133,455.479 633.133,492.582 633.135,536.007 681.615,559.533 681.615,604.545 739.809,665.008 864.957,665.008 						"/>
						<polyline fill="none" stroke="#FFFFFF" stroke-miterlimit="10" points="536.41,258.276 684.179,258.278 684.178,422.805 
							661.715,452.671 661.714,495.844 690.496,512.687 690.496,604.544 742.114,655.497 862.086,655.496 						"/>
						<polyline fill="none" stroke="#FFFFFF" stroke-miterlimit="10" points="599.023,241.061 699.373,241.061 699.373,442.26 
							699.373,462.521 687.738,473.393 687.739,498.6 699.373,510.545 699.373,604.545 745.639,647.485 857.543,647.485 						"/>
						<polyline fill="none" stroke="#FFFFFF" stroke-miterlimit="10" points="510.635,223.844 703.354,223.843 707.643,234.363 
							707.643,466.041 707.643,499.823 703.355,512.072 703.355,571.171 707.644,581.884 707.643,604.801 745.64,642.225 
							857.543,642.224 						"/>
						<polyline fill="none" stroke="#FFFFFF" stroke-miterlimit="10" points="716.673,251.58 716.674,447.058 716.672,494.827 
							707.643,513.299 707.644,568.721 716.674,584.716 716.522,604.543 751.125,636.239 857.543,636.238 						"/>
						<polyline fill="none" stroke="#FFFFFF" stroke-miterlimit="10" points="786.025,445.627 786.027,469.563 764.596,489.058 
							764.598,555.861 751.125,581.275 751.125,604.544 756.992,609.445 828.895,609.447 						"/>
						<polyline fill="none" stroke="#FFFFFF" stroke-miterlimit="10" points="786.025,487.274 778.984,495.234 778.986,513.911 
							770.105,523.405 770.107,561.371 760.617,583.42 760.617,601.675 763.445,604.697 828.895,604.696 						"/>
						<polyline fill="none" stroke="#FFFFFF" stroke-miterlimit="10" points="828.895,497.068 828.896,545.907 786.025,586.073 
							786.025,591.631 829.053,591.631 						"/>
						<polyline fill="none" stroke="#FFFFFF" stroke-miterlimit="10" points="800.111,461.245 800.111,514.371 780.211,530.905 
							780.211,559.227 769.109,584.643 769.109,600.24 832.574,600.239 						"/>
						<polyline fill="none" stroke="#FFFFFF" stroke-miterlimit="10" points="812.666,485.537 812.666,521.873 786.027,536.008 
							786.027,561.884 778.066,584.029 778.066,597.371 833.512,597.371 						"/>
						<polyline fill="none" stroke="#FFFFFF" stroke-miterlimit="10" points="530.233,670.834 566.975,670.834 580.859,659.172 
							613.111,659.173 628.625,670.838 667.816,670.837 674.375,670.837 726.022,717.072 808.283,717.072 						"/>
						<polyline fill="none" stroke="#FFFFFF" stroke-miterlimit="10" points="163.824,428.063 288.172,482.017 288.17,579.28 
							354.168,631.49 464.168,631.492 490.887,659.171 562.535,659.172 579.07,645.727 616.734,645.727 641.229,661.652 
							667.563,661.652 674.85,661.652 728.283,709.896 809.24,709.896 						"/>
						<polyline fill="none" stroke="#FFFFFF" stroke-miterlimit="10" points="533.527,679.41 567.844,679.41 581.928,689.82 
							629.695,689.82 647.658,679.41 667.563,679.41 722.678,728.707 801.826,728.707 						"/>
						<polyline fill="none" stroke="#FFFFFF" stroke-miterlimit="10" points="555.596,771.679 599.025,771.678 622.549,723.196 
							667.56,723.195 680.957,735.244 						"/>
						<polyline fill="none" stroke="#FFFFFF" stroke-miterlimit="10" points="515.688,743.096 558.863,743.096 575.701,714.318 
							667.563,714.318 692.307,736.678 						"/>
						<polyline fill="none" stroke="#FFFFFF" stroke-miterlimit="10" points="505.279,705.436 525.54,705.436 536.41,717.072 
							561.617,717.072 573.561,705.436 667.563,705.437 704.024,738.592 						"/>
						<polyline fill="none" stroke="#FFFFFF" stroke-miterlimit="10" points="529.059,697.168 562.842,697.168 575.093,701.459 
							634.188,701.459 644.902,697.168 667.816,697.168 711.676,736.678 						"/>
						<polyline fill="none" stroke="#FFFFFF" stroke-miterlimit="10" points="510.076,688.137 557.84,688.136 576.314,697.168 
							631.734,697.168 647.738,688.137 667.563,688.29 722.198,736.678 799.912,736.678 						"/>
						<polyline fill="none" stroke="#FFFFFF" stroke-miterlimit="10" points="508.646,618.782 532.582,618.783 552.075,640.217 
							618.879,640.216 644.289,653.692 667.563,653.69 676.744,653.69 728.283,701.459 803.502,701.46 						"/>
						<polyline fill="none" stroke="#FFFFFF" stroke-miterlimit="10" points="550.287,618.782 558.25,625.826 576.926,625.826 
							586.42,634.703 624.389,634.704 646.434,644.196 667.563,644.197 680.959,644.197 730.328,692.653 805.791,692.653 						"/>
						<polyline fill="none" stroke="#FFFFFF" stroke-miterlimit="10" points="560.086,575.918 608.925,575.919 649.091,618.782 
							667.563,618.783 688.002,618.783 737.5,669.242 801.826,669.241 						"/>
						<polyline fill="none" stroke="#FFFFFF" stroke-miterlimit="10" points="524.26,604.696 577.385,604.697 593.923,624.6 
							622.245,624.6 647.659,635.7 667.563,635.701 683.223,635.7 731.99,683.591 803.502,683.592 						"/>
						<polyline fill="none" stroke="#FFFFFF" stroke-miterlimit="10" points="548.553,592.145 584.889,592.145 599.025,618.782 
							624.896,618.782 647.049,626.745 667.563,626.746 685.85,626.746 735.109,675.225 804.936,675.226 						"/>
						<polyline fill="none" stroke="#FFFFFF" stroke-miterlimit="10" points="502.379,618.627 363.259,618.627 298.693,572.236 
							298.693,478.492 159.043,415.047 						"/>
						<polyline fill="none" stroke="#FFFFFF" stroke-miterlimit="10" points="523.191,670.834 459.387,670.991 444.082,644.196 
							335.998,644.195 269.043,588.622 269.041,497.067 163.826,450.5 						"/>
						<polyline fill="none" stroke="#FFFFFF" stroke-miterlimit="10" points="529.371,679.41 448.863,679.41 434.517,653.691 
							323.564,653.69 255.648,592.142 255.648,505.056 167.65,465.804 						"/>
						<polyline fill="none" stroke="#FFFFFF" stroke-miterlimit="10" points="503.596,688.137 434.516,688.136 420.168,662.537 
							359.313,662.536 						"/>
						<polyline fill="none" stroke="#FFFFFF" stroke-miterlimit="10" points="498.545,705.281 362.778,705.438 238.432,595.664 
							238.434,512.709 163.824,478.492 						"/>
						<polyline fill="none" stroke="#FFFFFF" stroke-miterlimit="10" points="512.166,743.1 415.691,743.1 406.779,714.32 
							356.562,714.319 225.041,601.177 225.039,516.836 163.826,487.272 						"/>
						<g>
							<g>
								<path fill="#FFFFFF" d="M835.934,490.031c0,3.89-3.152,7.038-7.039,7.037c-3.889,0.002-7.039-3.147-7.039-7.037
									s3.15-7.037,7.041-7.037C832.779,482.995,835.934,486.143,835.934,490.031z"/>
							</g>
							<path fill="#FFFFFF" d="M815.611,480.086c1.07,1.629,0.609,3.811-1.018,4.874c-1.629,1.067-3.807,0.613-4.873-1.016
								c-1.064-1.628-0.611-3.812,1.02-4.876C812.367,478.004,814.549,478.461,815.611,480.086z"/>
							<g>
								<path fill="#FFFFFF" d="M602.951,275.493c-0.001,3.887-3.153,7.039-7.039,7.039c-3.883,0-7.039-3.151-7.037-7.038
									c0-3.886,3.154-7.041,7.037-7.04C599.797,268.455,602.949,271.608,602.951,275.493z"/>
								<circle fill="#FFFFFF" cx="800.114" cy="459" r="3.522"/>
								<path fill="#FFFFFF" d="M789.549,443.46c0,1.943-1.578,3.522-3.523,3.522c-1.943,0-3.516-1.578-3.516-3.521
									c-0.002-1.946,1.572-3.52,3.518-3.522C787.971,439.939,789.549,441.514,789.549,443.46z"/>
								<path fill="#FFFFFF" d="M539.934,258.277c0.002,1.944-1.577,3.52-3.524,3.518c-1.944,0.002-3.518-1.573-3.518-3.518
									s1.573-3.523,3.518-3.524C538.356,254.754,539.934,256.334,539.934,258.277z"/>
								<circle fill="#FFFFFF" cx="510.635" cy="223.844" r="7.038"/>
								<path fill="#FFFFFF" d="M603.107,241.061c0,3.887-3.15,7.035-7.041,7.035c-3.885,0-7.033-3.15-7.035-7.035
									c0.002-3.891,3.152-7.039,7.037-7.039C599.957,234.021,603.107,237.17,603.107,241.061z"/>
								<path fill="#FFFFFF" d="M737.496,248.1c0,1.943-1.582,3.521-3.523,3.52c-1.943,0-3.52-1.576-3.518-3.519
									c-0.002-1.946,1.574-3.522,3.518-3.523C735.915,244.577,737.496,246.154,737.496,248.1z"/>
								<circle fill="#FFFFFF" cx="683.523" cy="422.266" r="3.521"/>
								<path fill="#FFFFFF" d="M702.896,462.284c0.001,1.946-1.579,3.521-3.523,3.522c-1.943-0.002-3.52-1.578-3.52-3.522
									c-0.002-1.943,1.575-3.521,3.52-3.522C701.317,458.762,702.897,460.341,702.896,462.284z"/>
								<circle fill="#FFFFFF" cx="599.024" cy="213.32" r="3.522"/>
								<path fill="#FFFFFF" d="M720.197,251.58c0,1.943-1.576,3.523-3.525,3.523c-1.943,0-3.52-1.58-3.52-3.523
									c-0.002-1.945,1.577-3.519,3.521-3.52C718.619,248.061,720.197,249.636,720.197,251.58z"/>
								<path fill="#FFFFFF" d="M749.158,446.982c-0.001,1.941-1.574,3.52-3.521,3.519c-1.944,0.001-3.523-1.578-3.523-3.519
									c-0.001-1.948,1.579-3.521,3.524-3.522S749.158,445.034,749.158,446.982z"/>
								<circle fill="#FFFFFF" cx="632.976" cy="533.792" r="3.521"/>
								<path fill="#FFFFFF" d="M505.947,201.843c0.002,1.944-1.576,3.521-3.522,3.521c-1.945,0.001-3.519-1.576-3.519-3.521
									s1.572-3.521,3.519-3.521C504.369,198.319,505.949,199.895,505.947,201.843z"/>
								<path fill="#FFFFFF" d="M502.068,611.745c3.885,0.001,7.036,3.149,7.035,7.037c0.001,3.888-3.15,7.038-7.035,7.036
									c-3.889,0-7.043-3.149-7.041-7.036C495.026,614.896,498.18,611.745,502.068,611.745z"/>
								<path fill="#FFFFFF" d="M553.049,568.875c3.887,0,7.037,3.152,7.037,7.043c0,3.885-3.15,7.035-7.037,7.034
									c-3.887,0-7.039-3.15-7.039-7.035C546.01,572.026,549.161,568.875,553.049,568.875z"/>
								<path fill="#FFFFFF" d="M745.639,541.455c3.888,0,7.04,3.149,7.038,7.034c0.001,3.892-3.152,7.041-7.038,7.041
									c-3.887,0.001-7.041-3.149-7.041-7.041C738.598,544.604,741.752,541.456,745.639,541.455z"/>
								<circle fill="#FFFFFF" cx="714.68" cy="518.77" r="7.038"/>
								<path fill="#FFFFFF" d="M786.025,478.5c3.889-0.001,7.041,3.148,7.039,7.035c0,3.889-3.15,7.04-7.039,7.04
									c-3.883,0.001-7.035-3.151-7.035-7.039C778.988,481.647,782.143,478.499,786.025,478.5z"/>
								<path fill="#FFFFFF" d="M764.508,481.861c3.887,0.001,7.037,3.15,7.039,7.041c-0.002,3.886-3.152,7.035-7.039,7.035
									c-3.889,0-7.041-3.149-7.041-7.035C757.467,485.011,760.619,481.862,764.508,481.861z"/>
								<path fill="#FFFFFF" d="M498.236,698.399c3.888,0.001,7.036,3.151,7.037,7.035c0,3.89-3.149,7.04-7.037,7.04
									c-3.89-0.001-7.042-3.15-7.042-7.04C491.194,701.551,494.346,698.399,498.236,698.399z"/>
								<circle fill="#FFFFFF" cx="490.887" cy="659.173" r="7.038"/>
								<path fill="#FFFFFF" d="M611.689,651.979c3.886,0.002,7.037,3.15,7.038,7.038c0,3.886-3.152,7.038-7.037,7.038
									c-3.89-0.002-7.038-3.154-7.04-7.038C604.652,655.129,607.801,651.979,611.689,651.979z"/>
								<path fill="#FFFFFF" d="M667.679,672.37c3.886,0.001,7.038,3.152,7.038,7.042c0,3.887-3.153,7.038-7.039,7.036
									c-3.887,0.002-7.037-3.149-7.036-7.036C660.641,675.524,663.791,672.371,667.679,672.37z"/>
								<path fill="#FFFFFF" d="M581.76,681.084c3.887-0.002,7.038,3.151,7.038,7.041c0.001,3.885-3.15,7.037-7.037,7.037
									c-3.886-0.002-7.038-3.152-7.038-7.039S577.875,681.084,581.76,681.084z"/>
								<path fill="#FFFFFF" d="M632.975,448.438c3.887,0,7.041,3.152,7.039,7.042c0,3.886-3.152,7.037-7.039,7.036
									c-3.887,0-7.035-3.151-7.036-7.036C625.939,451.591,629.088,448.438,632.975,448.438z"/>
								<path fill="#FFFFFF" d="M224.762,594.137c3.887,0.001,7.039,3.153,7.039,7.041c-0.002,3.884-3.154,7.036-7.039,7.036
									s-7.037-3.152-7.037-7.036C217.725,597.29,220.875,594.138,224.762,594.137z"/>
								<path fill="#FFFFFF" d="M363.141,611.586c3.887,0,7.041,3.153,7.041,7.041c0,3.886-3.155,7.038-7.04,7.038
									c-3.888-0.001-7.035-3.153-7.036-7.037C356.106,614.739,359.254,611.587,363.141,611.586z"/>
								<path fill="#FFFFFF" d="M359.309,654.612c3.89,0,7.039,3.152,7.04,7.042c-0.001,3.885-3.149,7.037-7.04,7.037
									c-3.886-0.001-7.037-3.153-7.037-7.036C352.272,657.766,355.423,654.613,359.309,654.612z"/>
								<path fill="#FFFFFF" d="M522.018,601.177c1.943,0,3.521,1.576,3.521,3.52c0.002,1.947-1.577,3.521-3.521,3.521
									c-1.945,0-3.522-1.574-3.523-3.521C518.494,602.753,520.072,601.178,522.018,601.177z"/>
								<path fill="#FFFFFF" d="M337.994,640.677c1.946,0,3.523,1.573,3.523,3.521c0,1.942-1.578,3.52-3.523,3.52
									c-1.943,0-3.518-1.577-3.518-3.521S336.049,640.676,337.994,640.677z"/>
								<path fill="#FFFFFF" d="M599.025,615.264c1.942-0.001,3.521,1.576,3.521,3.52c-0.001,1.948-1.578,3.522-3.521,3.523
									c-1.944,0-3.523-1.576-3.523-3.524C595.502,616.84,597.08,615.263,599.025,615.264z"/>
								<path fill="#FFFFFF" d="M680.959,601.177c1.945,0,3.521,1.576,3.521,3.52c-0.001,1.946-1.577,3.521-3.522,3.521
									c-1.945,0.001-3.524-1.573-3.523-3.521C677.434,602.754,679.012,601.177,680.959,601.177z"/>
								<path fill="#FFFFFF" d="M724.762,581.58c1.944,0,3.521,1.577,3.523,3.522c-0.002,1.944-1.579,3.521-3.524,3.521
									c-1.942-0.001-3.521-1.576-3.521-3.52C721.239,583.157,722.817,581.58,724.762,581.58z"/>
								<path fill="#FFFFFF" d="M751.125,632.717c1.943-0.001,3.52,1.576,3.52,3.522c0,1.943-1.576,3.518-3.52,3.519
									c-1.947,0-3.524-1.574-3.524-3.519C747.6,634.293,749.178,632.717,751.125,632.717z"/>
								<path fill="#FFFFFF" d="M762.373,599.005c1.947,0.001,3.52,1.576,3.521,3.521c-0.002,1.946-1.576,3.521-3.521,3.521
									c-1.943-0.001-3.52-1.575-3.52-3.521C758.852,600.582,760.432,599.006,762.373,599.005z"/>
								<path fill="#FFFFFF" d="M769.416,556.804c1.947,0,3.521,1.574,3.521,3.52c0,1.947-1.576,3.519-3.523,3.519
									c-1.941-0.001-3.521-1.57-3.521-3.518C765.895,558.378,767.471,556.802,769.416,556.804z"/>
								<path fill="#FFFFFF" d="M745.639,513.317c1.947,0,3.522,1.576,3.521,3.52c0,1.948-1.576,3.519-3.521,3.518
									c-1.947,0.001-3.525-1.568-3.526-3.519C742.114,514.894,743.693,513.317,745.639,513.317z"/>
								<circle fill="#FFFFFF" cx="526.71" cy="697.17" r="3.521"/>
								<path fill="#FFFFFF" d="M532.578,675.891c1.943,0,3.521,1.576,3.521,3.52c0,1.945-1.577,3.523-3.521,3.523
									c-1.946-0.001-3.522-1.578-3.521-3.524C529.058,677.469,530.633,675.893,532.578,675.891z"/>
								<circle fill="#FFFFFF" cx="684.479" cy="626.745" r="3.521"/>
								<circle fill="#FFFFFF" cx="574.723" cy="714.319" r="3.52"/>
								<path fill="#FFFFFF" d="M543.104,589.196c1.626-1.064,3.807-0.609,4.873,1.02c1.067,1.626,0.609,3.809-1.016,4.871
									c-1.627,1.066-3.812,0.612-4.875-1.013C541.022,592.444,541.476,590.261,543.104,589.196z"/>
								<path fill="#FFFFFF" d="M679.029,557.377c1.627-1.066,3.809-0.61,4.873,1.019c1.066,1.627,0.609,3.808-1.016,4.873
									c-1.628,1.065-3.81,0.608-4.874-1.02C676.947,560.627,677.402,558.444,679.029,557.377z"/>
								<path fill="#FFFFFF" d="M660.209,490.92c1.627-1.066,3.809-0.613,4.877,1.015c1.063,1.629,0.607,3.81-1.018,4.873
									c-1.629,1.068-3.81,0.611-4.878-1.018C658.127,494.166,658.58,491.983,660.209,490.92z"/>
								<path fill="#FFFFFF" d="M784.408,582.154c1.629-1.064,3.807-0.611,4.873,1.02c1.068,1.627,0.613,3.811-1.016,4.871
									c-1.627,1.065-3.811,0.612-4.875-1.015C782.324,585.402,782.779,583.219,784.408,582.154z"/>
								<path fill="#FFFFFF" d="M284.783,479.069c1.627-1.065,3.807-0.61,4.873,1.019c1.064,1.627,0.609,3.808-1.014,4.871
									c-1.629,1.068-3.814,0.612-4.879-1.017C282.701,482.317,283.152,480.135,284.783,479.069z"/>
								<path fill="#FFFFFF" d="M267.566,584.524c1.627-1.064,3.807-0.611,4.873,1.018c1.064,1.63,0.611,3.808-1.016,4.873
									c-1.627,1.067-3.811,0.61-4.875-1.018C265.484,587.773,265.938,585.589,267.566,584.524z"/>
								<path fill="#FFFFFF" d="M222.834,513.891c1.629-1.065,3.809-0.609,4.871,1.018c1.07,1.629,0.613,3.809-1.012,4.874
									c-1.629,1.067-3.813,0.61-4.877-1.019C220.75,517.139,221.205,514.955,222.834,513.891z"/>
								<circle fill="#FFFFFF" cx="547.494" cy="616.677" r="3.521"/>
								<path fill="#FFFFFF" d="M622.245,719.787c1.947,0,3.524,1.574,3.524,3.518c-0.001,1.947-1.575,3.522-3.522,3.522
									c-1.944-0.001-3.521-1.575-3.52-3.522C618.727,721.36,620.303,719.787,622.245,719.787z"/>
								<path fill="#FFFFFF" d="M726.266,714.318c1.945,0.001,3.524,1.576,3.524,3.521c0,1.947-1.578,3.521-3.524,3.521
									c-1.944,0.001-3.516-1.574-3.516-3.521C722.748,715.895,724.321,714.319,726.266,714.318z"/>
								<path fill="#FFFFFF" d="M741.812,651.819c1.944,0.001,3.522,1.574,3.522,3.519c0,1.949-1.579,3.523-3.522,3.523
									c-1.944,0-3.522-1.575-3.521-3.524C738.288,653.394,739.867,651.82,741.812,651.819z"/>
								<circle fill="#FFFFFF" cx="608.478" cy="575.759" r="3.521"/>
								<circle fill="#FFFFFF" cx="519.34" cy="719.784" r="3.521"/>
								<circle fill="#FFFFFF" cx="507.115" cy="688.136" r="3.522"/>
								<circle fill="#FFFFFF" cx="526.711" cy="670.833" r="3.521"/>
							</g>
						</g>
					</g>
				</g>
			</g>
		</g>
	</g>
	<g>
		<g>
			<path fill="#C4C4C4" d="M576.648,451.677l-6-7l-49.728,28.181h-58.382c-18.035,0-36.094,3.769-53.688,11.206
				c-16.992,7.184-32.631,17.386-46.486,30.317c-24.5,22.858-40.969,52.354-46.387,83.066c-5.414,30.708,0.654,60.209,17.094,83.062
				c9.293,12.938,21.336,23.14,35.793,30.323c14.971,7.438,31.699,11.207,49.736,11.207h121.876l40.356-51.985l-6-7l-36.691,7
				L576.648,451.677z M486.148,670.054h-58.381c-40.037,0-66.863-32.57-59.805-72.606c7.061-40.035,45.373-72.604,85.408-72.604
				h58.383L486.148,670.054z"/>
			<polygon fill="#C4C4C4" points="588.652,383.59 582.652,376.59 534.854,393.837 419.17,438.821 425.17,445.821 649.564,445.821 
				689.92,393.837 683.92,386.837 586.846,393.837 			"/>
			<polygon fill="#C4C4C4" points="701.951,325.606 695.951,318.606 598.877,325.606 609.57,264.961 603.57,257.961 
				552.078,296.159 546.885,325.606 432.168,370.735 437.34,377.735 661.734,377.735 			"/>
		</g>
		<g>
			<linearGradient id="SVGID_9_" gradientUnits="userSpaceOnUse" x1="354.1548" y1="702.4102" x2="591.2682" y2="465.2967">
				<stop  offset="0" style="stop-color:#D1D3D4"/>
				<stop  offset="0.5" style="stop-color:#FFFFFF"/>
				<stop  offset="1" style="stop-color:#D1D3D4"/>
			</linearGradient>
			<path fill="url(#SVGID_9_)" d="M570.648,444.677h-51.993l-3.734,21.181h-58.382c-18.035,0-36.094,3.769-53.688,11.206
				c-16.992,7.184-32.631,17.386-46.486,30.317c-24.5,22.858-40.969,52.354-46.387,83.066c-5.414,30.708,0.654,60.209,17.094,83.062
				c9.293,12.938,21.336,23.14,35.793,30.323c14.971,7.438,31.699,11.207,49.736,11.207h121.876l40.356-51.985h-42.691
				L570.648,444.677z M480.148,663.054h-58.381c-40.037,0-66.863-32.57-59.805-72.606c7.061-40.035,45.373-72.604,85.408-72.604
				h58.383L480.148,663.054z"/>
			<linearGradient id="SVGID_10_" gradientUnits="userSpaceOnUse" x1="472.3613" y1="492.0137" x2="630.7288" y2="333.6463">
				<stop  offset="0" style="stop-color:#D1D3D4"/>
				<stop  offset="0.5" style="stop-color:#FFFFFF"/>
				<stop  offset="1" style="stop-color:#D1D3D4"/>
			</linearGradient>
			<polygon fill="url(#SVGID_10_)" points="582.652,376.59 530.661,376.59 528.854,386.837 459.525,386.837 419.17,438.821 
				643.564,438.821 683.92,386.837 580.846,386.837 			"/>
			<linearGradient id="SVGID_11_" gradientUnits="userSpaceOnUse" x1="484.4609" y1="423.8564" x2="642.8311" y2="265.4863">
				<stop  offset="0" style="stop-color:#D1D3D4"/>
				<stop  offset="0.5" style="stop-color:#FFFFFF"/>
				<stop  offset="1" style="stop-color:#D1D3D4"/>
			</linearGradient>
			<polygon fill="url(#SVGID_11_)" points="695.951,318.606 592.877,318.606 603.57,257.961 546.078,289.159 540.885,318.606 
				471.559,318.606 431.34,370.735 655.734,370.735 			"/>
		</g>
	</g>
	<g>
		<linearGradient id="SVGID_12_" gradientUnits="userSpaceOnUse" x1="119.8867" y1="485" x2="880.1133" y2="485">
			<stop  offset="0" style="stop-color:#D1D3D4"/>
			<stop  offset="0.5" style="stop-color:#FFFFFF"/>
			<stop  offset="1" style="stop-color:#D1D3D4"/>
		</linearGradient>
		<path fill="url(#SVGID_12_)" d="M850.238,337.045c-19.144-45.266-46.555-85.917-81.459-120.825
			c-34.904-34.905-75.563-62.314-120.818-81.455c-46.867-19.823-96.645-29.876-147.959-29.876
			c-51.313,0-101.096,10.053-147.961,29.876c-45.262,19.141-85.913,46.55-120.82,81.455c-34.908,34.908-62.312,75.56-81.461,120.825
			c-19.82,46.86-29.873,96.645-29.873,147.953c0,51.316,10.053,101.098,29.873,147.96c19.149,45.265,46.553,85.914,81.461,120.822
			c34.907,34.904,75.559,62.313,120.82,81.456c46.865,19.825,96.648,29.875,147.961,29.875c51.314,0,101.092-10.05,147.959-29.875
			c45.256-19.144,85.914-46.552,120.818-81.456c34.904-34.908,62.315-75.558,81.459-120.822
			c19.822-46.862,29.875-96.644,29.875-147.96C880.113,433.689,870.061,383.905,850.238,337.045z M645.311,828.976
			c-46.021,19.466-94.912,29.339-145.309,29.339c-50.396,0-99.287-9.873-145.311-29.339
			c-44.452-18.804-84.373-45.722-118.664-80.005c-34.279-34.283-61.197-74.21-79.998-118.662
			c-19.469-46.021-29.338-94.911-29.338-145.311c0-50.396,9.869-99.286,29.338-145.309c18.801-44.448,45.719-84.376,79.998-118.657
			c34.291-34.288,74.212-61.204,118.664-80.006c46.023-19.468,94.915-29.335,145.311-29.335c50.396,0,99.288,9.867,145.309,29.335
			c44.452,18.802,84.375,45.718,118.662,80.006c34.283,34.281,61.201,74.209,80,118.657c19.471,46.022,29.336,94.913,29.336,145.309
			c0,50.399-9.865,99.29-29.336,145.311c-18.799,44.452-45.717,84.379-80,118.662C729.686,783.254,689.763,810.172,645.311,828.976z
			"/>
		<g>
			<linearGradient id="SVGID_13_" gradientUnits="userSpaceOnUse" x1="895.334" y1="467.1484" x2="923.1035" y2="467.1484">
				<stop  offset="0" style="stop-color:#D1D3D4"/>
				<stop  offset="0.5" style="stop-color:#FFFFFF"/>
				<stop  offset="1" style="stop-color:#D1D3D4"/>
			</linearGradient>
			<path fill="url(#SVGID_13_)" d="M899.58,463.321c-2.445,0.134-4.338,2.162-4.242,4.521c0.117,2.357,2.148,4.218,4.611,4.145
				l18.869-0.604c2.445-0.073,4.402-2.193,4.279-4.725c-0.105-2.53-2.203-4.479-4.662-4.343L899.58,463.321z"/>
			<linearGradient id="SVGID_14_" gradientUnits="userSpaceOnUse" x1="893.8359" y1="445.0137" x2="921.5303" y2="445.0137">
				<stop  offset="0" style="stop-color:#D1D3D4"/>
				<stop  offset="0.5" style="stop-color:#FFFFFF"/>
				<stop  offset="1" style="stop-color:#D1D3D4"/>
			</linearGradient>
			<path fill="url(#SVGID_14_)" d="M916.615,439.693l-18.773,2.02c-2.447,0.267-4.201,2.39-3.988,4.742
				c0.23,2.347,2.385,4.093,4.824,3.889l18.811-1.613c2.453-0.206,4.268-2.427,4.02-4.948
				C921.277,441.258,919.049,439.427,916.615,439.693z"/>
			<linearGradient id="SVGID_15_" gradientUnits="userSpaceOnUse" x1="891.1709" y1="422.9951" x2="918.7412" y2="422.9951">
				<stop  offset="0" style="stop-color:#D1D3D4"/>
				<stop  offset="0.5" style="stop-color:#FFFFFF"/>
				<stop  offset="1" style="stop-color:#D1D3D4"/>
			</linearGradient>
			<path fill="url(#SVGID_15_)" d="M913.578,417.199l-18.633,3.033c-2.426,0.398-4.086,2.617-3.725,4.947
				c0.34,2.336,2.596,3.961,5.027,3.625l18.697-2.629c2.434-0.336,4.111-2.649,3.746-5.158
				C918.305,418.513,916,416.8,913.578,417.199z"/>
			<linearGradient id="SVGID_16_" gradientUnits="userSpaceOnUse" x1="887.3389" y1="401.1572" x2="914.7334" y2="401.1572">
				<stop  offset="0" style="stop-color:#D1D3D4"/>
				<stop  offset="0.5" style="stop-color:#FFFFFF"/>
				<stop  offset="1" style="stop-color:#D1D3D4"/>
			</linearGradient>
			<path fill="url(#SVGID_16_)" d="M890.885,398.942c-2.387,0.528-3.943,2.838-3.457,5.145c0.49,2.309,2.801,3.813,5.215,3.345
				l18.529-3.639c2.402-0.467,3.984-2.876,3.461-5.357s-2.898-4.067-5.305-3.535L890.885,398.942z"/>
			<linearGradient id="SVGID_17_" gradientUnits="userSpaceOnUse" x1="882.3623" y1="379.5684" x2="909.5127" y2="379.5684">
				<stop  offset="0" style="stop-color:#D1D3D4"/>
				<stop  offset="0.5" style="stop-color:#FFFFFF"/>
				<stop  offset="1" style="stop-color:#D1D3D4"/>
			</linearGradient>
			<path fill="url(#SVGID_17_)" d="M882.498,383.233c0.611,2.278,3.018,3.652,5.393,3.055l18.303-4.643
				c2.385-0.601,3.816-3.088,3.16-5.537c-0.637-2.454-3.131-3.898-5.488-3.24l-18.197,5.04
				C883.297,378.57,881.908,380.95,882.498,383.233z"/>
			<linearGradient id="SVGID_18_" gradientUnits="userSpaceOnUse" x1="876.2363" y1="358.2886" x2="903.0967" y2="358.2886">
				<stop  offset="0" style="stop-color:#D1D3D4"/>
				<stop  offset="0.5" style="stop-color:#FFFFFF"/>
				<stop  offset="1" style="stop-color:#D1D3D4"/>
			</linearGradient>
			<path fill="url(#SVGID_18_)" d="M876.447,362.678c0.715,2.249,3.203,3.485,5.547,2.757l18.021-5.634
				c2.346-0.729,3.627-3.286,2.857-5.703c-0.797-2.407-3.338-3.725-5.662-2.935l-17.893,6.026
				C876.994,357.978,875.703,360.439,876.447,362.678z"/>
			<linearGradient id="SVGID_19_" gradientUnits="userSpaceOnUse" x1="868.9932" y1="337.3843" x2="895.5049" y2="337.3843">
				<stop  offset="0" style="stop-color:#D1D3D4"/>
				<stop  offset="0.5" style="stop-color:#FFFFFF"/>
				<stop  offset="1" style="stop-color:#D1D3D4"/>
			</linearGradient>
			<path fill="url(#SVGID_19_)" d="M869.271,342.488c0.861,2.194,3.385,3.304,5.688,2.447l17.688-6.608
				c2.299-0.853,3.467-3.488,2.539-5.848c-0.906-2.369-3.525-3.54-5.807-2.625l-17.539,6.995
				C869.561,337.762,868.428,340.284,869.271,342.488z"/>
			<linearGradient id="SVGID_20_" gradientUnits="userSpaceOnUse" x1="860.6396" y1="316.918" x2="886.752" y2="316.918">
				<stop  offset="0" style="stop-color:#D1D3D4"/>
				<stop  offset="0.5" style="stop-color:#FFFFFF"/>
				<stop  offset="1" style="stop-color:#D1D3D4"/>
			</linearGradient>
			<path fill="url(#SVGID_20_)" d="M861.012,322.713c0.957,2.158,3.57,3.113,5.818,2.136l17.301-7.564
				c2.252-0.98,3.242-3.661,2.215-5.977c-1.045-2.313-3.727-3.337-5.947-2.301l-17.133,7.938
				C861.037,317.982,860.039,320.564,861.012,322.713z"/>
			<linearGradient id="SVGID_21_" gradientUnits="userSpaceOnUse" x1="851.2129" y1="296.9468" x2="876.8818" y2="296.9468">
				<stop  offset="0" style="stop-color:#D1D3D4"/>
				<stop  offset="0.5" style="stop-color:#FFFFFF"/>
				<stop  offset="1" style="stop-color:#D1D3D4"/>
			</linearGradient>
			<path fill="url(#SVGID_21_)" d="M851.68,303.422c1.1,2.087,3.723,2.92,5.926,1.815l16.861-8.494
				c2.188-1.097,3.07-3.846,1.889-6.09c-1.162-2.253-3.887-3.135-6.059-1.977l-16.674,8.857
				C851.461,298.688,850.598,301.324,851.68,303.422z"/>
			<linearGradient id="SVGID_22_" gradientUnits="userSpaceOnUse" x1="840.7412" y1="277.5293" x2="865.9082" y2="277.5293">
				<stop  offset="0" style="stop-color:#D1D3D4"/>
				<stop  offset="0.5" style="stop-color:#FFFFFF"/>
				<stop  offset="1" style="stop-color:#D1D3D4"/>
			</linearGradient>
			<path fill="url(#SVGID_22_)" d="M841.32,284.658c1.188,2.04,3.895,2.704,6.016,1.49l16.379-9.396
				c2.139-1.22,2.83-3.989,1.553-6.182c-1.285-2.185-4.066-2.911-6.16-1.645l-16.17,9.753
				C840.832,279.952,840.127,282.624,841.32,284.658z"/>
			<linearGradient id="SVGID_23_" gradientUnits="userSpaceOnUse" x1="829.2568" y1="258.7236" x2="853.8818" y2="258.7236">
				<stop  offset="0" style="stop-color:#D1D3D4"/>
				<stop  offset="0.5" style="stop-color:#FFFFFF"/>
				<stop  offset="1" style="stop-color:#D1D3D4"/>
			</linearGradient>
			<path fill="url(#SVGID_23_)" d="M829.955,266.486c1.316,1.959,4.016,2.499,6.086,1.166l15.844-10.271
				c2.057-1.327,2.633-4.154,1.221-6.258c-1.402-2.112-4.207-2.696-6.24-1.311l-15.619,10.612
				C829.227,261.804,828.65,264.52,829.955,266.486z"/>
			<linearGradient id="SVGID_24_" gradientUnits="userSpaceOnUse" x1="816.792" y1="240.5811" x2="840.8262" y2="240.5811">
				<stop  offset="0" style="stop-color:#D1D3D4"/>
				<stop  offset="0.5" style="stop-color:#FFFFFF"/>
				<stop  offset="1" style="stop-color:#D1D3D4"/>
			</linearGradient>
			<path fill="url(#SVGID_24_)" d="M817.625,248.951c1.4,1.898,4.162,2.268,6.141,0.832l15.27-11.111
				c1.992-1.444,2.379-4.271,0.875-6.311c-1.512-2.037-4.354-2.456-6.301-0.969l-15.023,11.437
				C816.633,244.323,816.217,247.057,817.625,248.951z"/>
			<linearGradient id="SVGID_25_" gradientUnits="userSpaceOnUse" x1="803.3916" y1="223.1538" x2="826.7949" y2="223.1538">
				<stop  offset="0" style="stop-color:#D1D3D4"/>
				<stop  offset="0.5" style="stop-color:#FFFFFF"/>
				<stop  offset="1" style="stop-color:#D1D3D4"/>
			</linearGradient>
			<path fill="url(#SVGID_25_)" d="M804.363,232.107c1.52,1.805,4.262,2.055,6.178,0.504l14.643-11.919
				c1.9-1.54,2.17-4.413,0.539-6.352c-1.617-1.95-4.471-2.228-6.344-0.628l-14.383,12.23
				C803.133,227.531,802.854,230.292,804.363,232.107z"/>
			<linearGradient id="SVGID_26_" gradientUnits="userSpaceOnUse" x1="789.0898" y1="206.4922" x2="811.8213" y2="206.4922">
				<stop  offset="0" style="stop-color:#D1D3D4"/>
				<stop  offset="0.5" style="stop-color:#FFFFFF"/>
				<stop  offset="1" style="stop-color:#D1D3D4"/>
			</linearGradient>
			<path fill="url(#SVGID_26_)" d="M790.217,216c1.594,1.739,4.381,1.809,6.195,0.168l13.982-12.688
				c1.826-1.652,1.908-4.504,0.195-6.37c-1.727-1.86-4.596-1.974-6.371-0.284l-13.705,12.987
				C788.732,211.508,788.609,214.271,790.217,216z"/>
			<linearGradient id="SVGID_27_" gradientUnits="userSpaceOnUse" x1="773.9365" y1="190.6406" x2="795.9531" y2="190.6406">
				<stop  offset="0" style="stop-color:#D1D3D4"/>
				<stop  offset="0.5" style="stop-color:#FFFFFF"/>
				<stop  offset="1" style="stop-color:#D1D3D4"/>
			</linearGradient>
			<path fill="url(#SVGID_27_)" d="M775.217,200.68c1.709,1.632,4.461,1.585,6.197-0.163l13.281-13.423
				c1.721-1.735,1.682-4.622-0.15-6.374c-1.818-1.767-4.686-1.731-6.373,0.057l-12.988,13.707
				C773.504,196.265,773.527,199.037,775.217,200.68z"/>
			<linearGradient id="SVGID_28_" gradientUnits="userSpaceOnUse" x1="757.9668" y1="175.6504" x2="779.2354" y2="175.6504">
				<stop  offset="0" style="stop-color:#D1D3D4"/>
				<stop  offset="0.5" style="stop-color:#FFFFFF"/>
				<stop  offset="1" style="stop-color:#D1D3D4"/>
			</linearGradient>
			<path fill="url(#SVGID_28_)" d="M759.422,186.186c1.775,1.557,4.547,1.33,6.18-0.5l12.539-14.118
				c1.635-1.835,1.412-4.681-0.492-6.354c-1.918-1.66-4.779-1.469-6.363,0.402l-12.232,14.385
				C757.467,181.878,757.641,184.64,759.422,186.186z"/>
			<linearGradient id="SVGID_29_" gradientUnits="userSpaceOnUse" x1="741.2334" y1="161.5586" x2="761.7119" y2="161.5586">
				<stop  offset="0" style="stop-color:#D1D3D4"/>
				<stop  offset="0.5" style="stop-color:#FFFFFF"/>
				<stop  offset="1" style="stop-color:#D1D3D4"/>
			</linearGradient>
			<path fill="url(#SVGID_29_)" d="M742.865,172.568c1.873,1.438,4.604,1.094,6.143-0.83l11.758-14.772
				c1.527-1.911,1.176-4.775-0.832-6.32c-1.998-1.561-4.844-1.219-6.332,0.742l-11.438,15.022
				C740.684,168.362,741.008,171.114,742.865,172.568z"/>
			<linearGradient id="SVGID_30_" gradientUnits="userSpaceOnUse" x1="723.7803" y1="148.415" x2="743.4395" y2="148.415">
				<stop  offset="0" style="stop-color:#D1D3D4"/>
				<stop  offset="0.5" style="stop-color:#FFFFFF"/>
				<stop  offset="1" style="stop-color:#D1D3D4"/>
			</linearGradient>
			<path fill="url(#SVGID_30_)" d="M725.604,159.858c1.93,1.355,4.662,0.834,6.09-1.162l10.943-15.386
				c1.428-2,0.9-4.808-1.174-6.266c-2.084-1.443-4.908-0.944-6.283,1.086l-10.609,15.618
				C723.193,155.785,723.664,158.515,725.604,159.858z"/>
			<linearGradient id="SVGID_31_" gradientUnits="userSpaceOnUse" x1="705.6621" y1="136.251" x2="724.4639" y2="136.251">
				<stop  offset="0" style="stop-color:#D1D3D4"/>
				<stop  offset="0.5" style="stop-color:#FFFFFF"/>
				<stop  offset="1" style="stop-color:#D1D3D4"/>
			</linearGradient>
			<path fill="url(#SVGID_31_)" d="M707.678,148.107c2.014,1.226,4.693,0.589,6.016-1.488l10.098-15.955
				c1.311-2.066,0.654-4.874-1.512-6.193c-2.154-1.338-4.947-0.689-6.213,1.419l-9.75,16.171
				C705.057,144.161,705.674,146.861,707.678,148.107z"/>
			<linearGradient id="SVGID_32_" gradientUnits="userSpaceOnUse" x1="686.9238" y1="125.1143" x2="704.8447" y2="125.1143">
				<stop  offset="0" style="stop-color:#D1D3D4"/>
				<stop  offset="0.5" style="stop-color:#FFFFFF"/>
				<stop  offset="1" style="stop-color:#D1D3D4"/>
			</linearGradient>
			<path fill="url(#SVGID_32_)" d="M689.146,137.335c2.068,1.142,4.727,0.324,5.928-1.813l9.219-16.479
				c1.203-2.143,0.373-4.875-1.846-6.099c-2.227-1.212-4.982-0.41-6.131,1.756l-8.857,16.676
				C686.311,133.549,687.074,136.209,689.146,137.335z"/>
			<linearGradient id="SVGID_33_" gradientUnits="userSpaceOnUse" x1="667.6289" y1="115.0283" x2="684.6289" y2="115.0283">
				<stop  offset="0" style="stop-color:#D1D3D4"/>
				<stop  offset="0.5" style="stop-color:#FFFFFF"/>
				<stop  offset="1" style="stop-color:#D1D3D4"/>
			</linearGradient>
			<path fill="url(#SVGID_33_)" d="M670.057,127.595c2.135,1,4.729,0.079,5.818-2.13l8.311-16.956
				c1.08-2.192,0.121-4.918-2.174-5.993c-2.287-1.094-4.992-0.151-6.023,2.084l-7.936,17.132
				C667.025,123.956,667.93,126.577,670.057,127.595z"/>
			<linearGradient id="SVGID_34_" gradientUnits="userSpaceOnUse" x1="647.8193" y1="106.0381" x2="663.8857" y2="106.0381">
				<stop  offset="0" style="stop-color:#D1D3D4"/>
				<stop  offset="0.5" style="stop-color:#FFFFFF"/>
				<stop  offset="1" style="stop-color:#D1D3D4"/>
			</linearGradient>
			<path fill="url(#SVGID_34_)" d="M661.041,93.209c-2.342-0.968-4.998,0.137-5.9,2.413l-6.998,17.538
				c-0.902,2.286,0.148,4.841,2.328,5.741c2.178,0.907,4.732-0.196,5.691-2.445l7.377-17.383
				C664.506,96.808,663.383,94.184,661.041,93.209z"/>
			<linearGradient id="SVGID_35_" gradientUnits="userSpaceOnUse" x1="627.5674" y1="98.1621" x2="642.6641" y2="98.1621">
				<stop  offset="0" style="stop-color:#D1D3D4"/>
				<stop  offset="0.5" style="stop-color:#FFFFFF"/>
				<stop  offset="1" style="stop-color:#D1D3D4"/>
			</linearGradient>
			<path fill="url(#SVGID_35_)" d="M639.594,85.06c-2.396-0.828-4.98,0.392-5.762,2.728l-6.025,17.896
				c-0.777,2.319,0.4,4.839,2.631,5.608c2.229,0.772,4.709-0.436,5.551-2.749l6.416-17.76
				C643.242,88.483,641.988,85.891,639.594,85.06z"/>
			<linearGradient id="SVGID_36_" gradientUnits="userSpaceOnUse" x1="606.918" y1="91.4287" x2="621.0381" y2="91.4287">
				<stop  offset="0" style="stop-color:#D1D3D4"/>
				<stop  offset="0.5" style="stop-color:#FFFFFF"/>
				<stop  offset="1" style="stop-color:#D1D3D4"/>
			</linearGradient>
			<path fill="url(#SVGID_36_)" d="M617.73,78.096c-2.432-0.72-4.955,0.683-5.604,3.04l-5.043,18.196
				c-0.652,2.375,0.678,4.786,2.938,5.455c2.266,0.652,4.686-0.708,5.395-3.051l5.436-18.082
				C621.566,81.298,620.168,78.797,617.73,78.096z"/>
			<linearGradient id="SVGID_37_" gradientUnits="userSpaceOnUse" x1="585.9453" y1="85.8604" x2="599.0654" y2="85.8604">
				<stop  offset="0" style="stop-color:#D1D3D4"/>
				<stop  offset="0.5" style="stop-color:#FFFFFF"/>
				<stop  offset="1" style="stop-color:#D1D3D4"/>
			</linearGradient>
			<path fill="url(#SVGID_37_)" d="M595.523,72.325c-2.475-0.555-4.91,0.945-5.43,3.346l-4.043,18.442
				c-0.52,2.4,0.928,4.771,3.229,5.285c2.297,0.544,4.639-0.949,5.219-3.336l4.443-18.352
				C599.525,75.327,597.992,72.908,595.523,72.325z"/>
			<linearGradient id="SVGID_38_" gradientUnits="userSpaceOnUse" x1="564.7031" y1="81.4697" x2="576.8145" y2="81.4697">
				<stop  offset="0" style="stop-color:#D1D3D4"/>
				<stop  offset="0.5" style="stop-color:#FFFFFF"/>
				<stop  offset="1" style="stop-color:#D1D3D4"/>
			</linearGradient>
			<path fill="url(#SVGID_38_)" d="M573.033,67.79c-2.496-0.438-4.85,1.2-5.238,3.63l-3.033,18.636
				c-0.389,2.418,1.189,4.698,3.514,5.106c2.326,0.389,4.574-1.197,5.029-3.619l3.438-18.567
				C577.188,70.572,575.535,68.207,573.033,67.79z"/>
			<linearGradient id="SVGID_39_" gradientUnits="userSpaceOnUse" x1="543.2549" y1="78.2656" x2="554.3535" y2="78.2656">
				<stop  offset="0" style="stop-color:#D1D3D4"/>
				<stop  offset="0.5" style="stop-color:#FFFFFF"/>
				<stop  offset="1" style="stop-color:#D1D3D4"/>
			</linearGradient>
			<path fill="url(#SVGID_39_)" d="M550.334,64.475c-2.516-0.316-4.779,1.479-5.035,3.91l-2.018,18.774
				c-0.26,2.449,1.441,4.61,3.785,4.904c2.342,0.279,4.508-1.461,4.828-3.889l2.422-18.726
				C554.637,67.009,552.854,64.772,550.334,64.475z"/>
			<linearGradient id="SVGID_40_" gradientUnits="userSpaceOnUse" x1="521.666" y1="76.25" x2="531.752" y2="76.25">
				<stop  offset="0" style="stop-color:#D1D3D4"/>
				<stop  offset="0.5" style="stop-color:#FFFFFF"/>
				<stop  offset="1" style="stop-color:#D1D3D4"/>
			</linearGradient>
			<path fill="url(#SVGID_40_)" d="M527.494,62.386c-2.527-0.151-4.689,1.73-4.816,4.18l-1.006,18.854
				c-0.125,2.454,1.689,4.551,4.045,4.692c2.355,0.165,4.424-1.692,4.611-4.141l1.41-18.829
				C531.93,64.697,530.021,62.561,527.494,62.386z"/>
			<linearGradient id="SVGID_41_" gradientUnits="userSpaceOnUse" x1="499.9961" y1="75.4253" x2="509.0732" y2="75.4253">
				<stop  offset="0" style="stop-color:#D1D3D4"/>
				<stop  offset="0.5" style="stop-color:#FFFFFF"/>
				<stop  offset="1" style="stop-color:#D1D3D4"/>
			</linearGradient>
			<path fill="url(#SVGID_41_)" d="M504.584,61.534c-2.535-0.017-4.592,1.968-4.588,4.421v18.882
				c0.006,2.456,1.93,4.465,4.293,4.479c2.359,0.023,4.326-1.921,4.383-4.38l0.4-18.876C509.129,63.61,507.117,61.56,504.584,61.534
				z"/>
			<linearGradient id="SVGID_42_" gradientUnits="userSpaceOnUse" x1="477.3115" y1="75.7813" x2="486.9922" y2="75.7813">
				<stop  offset="0" style="stop-color:#D1D3D4"/>
				<stop  offset="0.5" style="stop-color:#FFFFFF"/>
				<stop  offset="1" style="stop-color:#D1D3D4"/>
			</linearGradient>
			<path fill="url(#SVGID_42_)" d="M481.658,61.903c-2.531,0.104-4.479,2.205-4.34,4.662l1.002,18.854
				c0.137,2.444,2.164,4.34,4.523,4.242c2.357-0.118,4.219-2.147,4.146-4.607l-0.605-18.873
				C486.311,63.735,484.191,61.778,481.658,61.903z"/>
			<linearGradient id="SVGID_43_" gradientUnits="userSpaceOnUse" x1="454.6694" y1="77.3193" x2="465.3599" y2="77.3193">
				<stop  offset="0" style="stop-color:#D1D3D4"/>
				<stop  offset="0.5" style="stop-color:#FFFFFF"/>
				<stop  offset="1" style="stop-color:#D1D3D4"/>
			</linearGradient>
			<path fill="url(#SVGID_43_)" d="M458.781,63.495c-2.523,0.228-4.354,2.456-4.086,4.89l2.016,18.774
				c0.27,2.447,2.395,4.201,4.742,3.989c2.35-0.231,4.094-2.386,3.891-4.826l-1.611-18.813
				C463.527,65.059,461.307,63.247,458.781,63.495z"/>
			<linearGradient id="SVGID_44_" gradientUnits="userSpaceOnUse" x1="432.1421" y1="80.0459" x2="443.8486" y2="80.0459">
				<stop  offset="0" style="stop-color:#D1D3D4"/>
				<stop  offset="0.5" style="stop-color:#FFFFFF"/>
				<stop  offset="1" style="stop-color:#D1D3D4"/>
			</linearGradient>
			<path fill="url(#SVGID_44_)" d="M441.178,70.055c-0.338-2.433-2.652-4.11-5.16-3.743c-2.506,0.387-4.215,2.689-3.818,5.108
				l3.033,18.638c0.398,2.423,2.619,4.083,4.951,3.725c2.332-0.342,3.957-2.599,3.621-5.029L441.178,70.055z"/>
			<linearGradient id="SVGID_45_" gradientUnits="userSpaceOnUse" x1="409.7993" y1="83.9639" x2="422.5176" y2="83.9639">
				<stop  offset="0" style="stop-color:#D1D3D4"/>
				<stop  offset="0.5" style="stop-color:#FFFFFF"/>
				<stop  offset="1" style="stop-color:#D1D3D4"/>
			</linearGradient>
			<path fill="url(#SVGID_45_)" d="M418.793,73.829c-0.467-2.404-2.873-3.984-5.355-3.461c-2.482,0.524-4.068,2.898-3.535,5.303
				l4.041,18.444c0.527,2.389,2.836,3.943,5.143,3.455c2.311-0.487,3.816-2.798,3.346-5.214L418.793,73.829z"/>
			<linearGradient id="SVGID_46_" gradientUnits="userSpaceOnUse" x1="387.7095" y1="89.062" x2="401.4282" y2="89.062">
				<stop  offset="0" style="stop-color:#D1D3D4"/>
				<stop  offset="0.5" style="stop-color:#FFFFFF"/>
				<stop  offset="1" style="stop-color:#D1D3D4"/>
			</linearGradient>
			<path fill="url(#SVGID_46_)" d="M401.289,97.108l-4.643-18.301c-0.602-2.386-3.086-3.817-5.537-3.161
				c-2.453,0.636-3.9,3.134-3.24,5.491l5.041,18.196c0.66,2.371,3.041,3.757,5.324,3.167
				C400.514,101.891,401.885,99.485,401.289,97.108z"/>
			<linearGradient id="SVGID_47_" gradientUnits="userSpaceOnUse" x1="365.9351" y1="95.3335" x2="380.6436" y2="95.3335">
				<stop  offset="0" style="stop-color:#D1D3D4"/>
				<stop  offset="0.5" style="stop-color:#FFFFFF"/>
				<stop  offset="1" style="stop-color:#D1D3D4"/>
			</linearGradient>
			<path fill="url(#SVGID_47_)" d="M380.434,103.007l-5.633-18.022c-0.727-2.343-3.285-3.626-5.703-2.857
				c-2.408,0.797-3.723,3.337-2.934,5.662l6.025,17.896c0.787,2.324,3.25,3.611,5.488,2.868
				C379.926,107.838,381.164,105.352,380.434,103.007z"/>
			<linearGradient id="SVGID_48_" gradientUnits="userSpaceOnUse" x1="344.5449" y1="102.7524" x2="360.2275" y2="102.7524">
				<stop  offset="0" style="stop-color:#D1D3D4"/>
				<stop  offset="0.5" style="stop-color:#FFFFFF"/>
				<stop  offset="1" style="stop-color:#D1D3D4"/>
			</linearGradient>
			<path fill="url(#SVGID_48_)" d="M359.939,110.04l-6.613-17.688c-0.852-2.294-3.484-3.464-5.846-2.539
				c-2.369,0.908-3.539,3.531-2.625,5.812l6.996,17.538c0.912,2.275,3.434,3.413,5.637,2.569
				C359.686,114.87,360.793,112.347,359.939,110.04z"/>
			<linearGradient id="SVGID_49_" gradientUnits="userSpaceOnUse" x1="323.6035" y1="111.3047" x2="340.2324" y2="111.3047">
				<stop  offset="0" style="stop-color:#D1D3D4"/>
				<stop  offset="0.5" style="stop-color:#FFFFFF"/>
				<stop  offset="1" style="stop-color:#D1D3D4"/>
			</linearGradient>
			<path fill="url(#SVGID_49_)" d="M339.848,118.171l-7.563-17.302c-0.98-2.252-3.66-3.243-5.977-2.212
				c-2.311,1.043-3.336,3.725-2.303,5.946l7.938,17.13c1.039,2.23,3.621,3.228,5.77,2.255
				C339.871,123.031,340.828,120.42,339.848,118.171z"/>
			<linearGradient id="SVGID_50_" gradientUnits="userSpaceOnUse" x1="303.1689" y1="120.9526" x2="320.7271" y2="120.9526">
				<stop  offset="0" style="stop-color:#D1D3D4"/>
				<stop  offset="0.5" style="stop-color:#FFFFFF"/>
				<stop  offset="1" style="stop-color:#D1D3D4"/>
			</linearGradient>
			<path fill="url(#SVGID_50_)" d="M318.42,133.32c2.09-1.1,2.922-3.722,1.818-5.924l-8.494-16.863
				c-1.096-2.187-3.848-3.068-6.09-1.89c-2.252,1.163-3.135,3.889-1.975,6.062l8.857,16.674
				C313.689,133.538,316.326,134.402,318.42,133.32z"/>
			<linearGradient id="SVGID_51_" gradientUnits="userSpaceOnUse" x1="283.3047" y1="131.6758" x2="301.7563" y2="131.6758">
				<stop  offset="0" style="stop-color:#D1D3D4"/>
				<stop  offset="0.5" style="stop-color:#FFFFFF"/>
				<stop  offset="1" style="stop-color:#D1D3D4"/>
			</linearGradient>
			<path fill="url(#SVGID_51_)" d="M293.68,142.064c1.271,2.103,3.943,2.81,5.979,1.615c2.041-1.188,2.705-3.893,1.492-6.016
				l-9.396-16.379c-1.221-2.137-3.99-2.828-6.182-1.554c-2.188,1.285-2.912,4.066-1.645,6.162L293.68,142.064z"/>
			<linearGradient id="SVGID_52_" gradientUnits="userSpaceOnUse" x1="264.0635" y1="143.4312" x2="283.3857" y2="143.4312">
				<stop  offset="0" style="stop-color:#D1D3D4"/>
				<stop  offset="0.5" style="stop-color:#FFFFFF"/>
				<stop  offset="1" style="stop-color:#D1D3D4"/>
			</linearGradient>
			<path fill="url(#SVGID_52_)" d="M275.426,153.753c1.379,2.021,4.096,2.598,6.061,1.294c1.957-1.316,2.5-4.017,1.166-6.087
				l-10.271-15.844c-1.324-2.057-4.152-2.633-6.256-1.221c-2.113,1.402-2.695,4.205-1.309,6.239L275.426,153.753z"/>
			<linearGradient id="SVGID_53_" gradientUnits="userSpaceOnUse" x1="245.5049" y1="156.1899" x2="265.6587" y2="156.1899">
				<stop  offset="0" style="stop-color:#D1D3D4"/>
				<stop  offset="0.5" style="stop-color:#FFFFFF"/>
				<stop  offset="1" style="stop-color:#D1D3D4"/>
			</linearGradient>
			<path fill="url(#SVGID_53_)" d="M257.832,166.414c1.492,1.953,4.227,2.369,6.119,0.961c1.9-1.4,2.268-4.161,0.834-6.142
				l-11.111-15.268c-1.447-1.994-4.275-2.382-6.313-0.877c-2.033,1.514-2.457,4.356-0.969,6.303L257.832,166.414z"/>
			<linearGradient id="SVGID_54_" gradientUnits="userSpaceOnUse" x1="227.6738" y1="169.9063" x2="248.6348" y2="169.9063">
				<stop  offset="0" style="stop-color:#D1D3D4"/>
				<stop  offset="0.5" style="stop-color:#FFFFFF"/>
				<stop  offset="1" style="stop-color:#D1D3D4"/>
			</linearGradient>
			<path fill="url(#SVGID_54_)" d="M240.941,180.005c1.59,1.861,4.352,2.141,6.17,0.632c1.803-1.52,2.051-4.262,0.502-6.175
				l-11.92-14.646c-1.541-1.901-4.412-2.171-6.352-0.539c-1.951,1.619-2.229,4.472-0.631,6.342L240.941,180.005z"/>
			<linearGradient id="SVGID_55_" gradientUnits="userSpaceOnUse" x1="210.6323" y1="184.5449" x2="232.3525" y2="184.5449">
				<stop  offset="0" style="stop-color:#D1D3D4"/>
				<stop  offset="0.5" style="stop-color:#FFFFFF"/>
				<stop  offset="1" style="stop-color:#D1D3D4"/>
			</linearGradient>
			<path fill="url(#SVGID_55_)" d="M224.813,194.486c1.693,1.783,4.459,1.902,6.188,0.298c1.738-1.598,1.809-4.381,0.168-6.197
				l-12.689-13.982c-1.652-1.826-4.504-1.907-6.369-0.192c-1.859,1.724-1.973,4.593-0.285,6.368L224.813,194.486z"/>
			<linearGradient id="SVGID_56_" gradientUnits="userSpaceOnUse" x1="194.4155" y1="200.0547" x2="216.8682" y2="200.0547">
				<stop  offset="0" style="stop-color:#D1D3D4"/>
				<stop  offset="0.5" style="stop-color:#FFFFFF"/>
				<stop  offset="1" style="stop-color:#D1D3D4"/>
			</linearGradient>
			<path fill="url(#SVGID_56_)" d="M209.482,209.816c1.785,1.68,4.553,1.657,6.199-0.035c1.631-1.708,1.584-4.459-0.162-6.195
				l-13.426-13.278c-1.734-1.725-4.621-1.686-6.373,0.147c-1.766,1.819-1.732,4.685,0.055,6.373L209.482,209.816z"/>
			<linearGradient id="SVGID_57_" gradientUnits="userSpaceOnUse" x1="179.082" y1="216.4004" x2="202.2207" y2="216.4004">
				<stop  offset="0" style="stop-color:#D1D3D4"/>
				<stop  offset="0.5" style="stop-color:#FFFFFF"/>
				<stop  offset="1" style="stop-color:#D1D3D4"/>
			</linearGradient>
			<path fill="url(#SVGID_57_)" d="M195,225.946c1.879,1.589,4.641,1.414,6.184-0.37c1.561-1.772,1.332-4.547-0.498-6.18
				l-14.119-12.535c-1.834-1.636-4.682-1.414-6.354,0.492c-1.658,1.915-1.467,4.778,0.402,6.362L195,225.946z"/>
			<linearGradient id="SVGID_58_" gradientUnits="userSpaceOnUse" x1="164.6646" y1="233.5259" x2="188.4521" y2="233.5259">
				<stop  offset="0" style="stop-color:#D1D3D4"/>
				<stop  offset="0.5" style="stop-color:#FFFFFF"/>
				<stop  offset="1" style="stop-color:#D1D3D4"/>
			</linearGradient>
			<path fill="url(#SVGID_58_)" d="M166.389,231.398l15.021,11.437c1.951,1.479,4.705,1.157,6.156-0.7
				c1.439-1.873,1.098-4.606-0.828-6.143l-14.771-11.758c-1.914-1.53-4.777-1.177-6.322,0.833
				C164.084,227.064,164.428,229.911,166.389,231.398z"/>
			<linearGradient id="SVGID_59_" gradientUnits="userSpaceOnUse" x1="151.2178" y1="251.3896" x2="175.6123" y2="251.3896">
				<stop  offset="0" style="stop-color:#D1D3D4"/>
				<stop  offset="0.5" style="stop-color:#FFFFFF"/>
				<stop  offset="1" style="stop-color:#D1D3D4"/>
			</linearGradient>
			<path fill="url(#SVGID_59_)" d="M153.131,249.82l15.617,10.608c2.037,1.378,4.768,0.908,6.109-1.033
				c1.357-1.929,0.834-4.663-1.164-6.089l-15.385-10.944c-1.998-1.428-4.809-0.9-6.264,1.173
				C150.602,245.619,151.1,248.446,153.131,249.82z"/>
			<linearGradient id="SVGID_60_" gradientUnits="userSpaceOnUse" x1="138.7739" y1="269.936" x2="163.7285" y2="269.936">
				<stop  offset="0" style="stop-color:#D1D3D4"/>
				<stop  offset="0.5" style="stop-color:#FFFFFF"/>
				<stop  offset="1" style="stop-color:#D1D3D4"/>
			</linearGradient>
			<path fill="url(#SVGID_60_)" d="M140.891,268.934l16.168,9.748c2.104,1.262,4.801,0.646,6.047-1.36
				c1.229-2.014,0.592-4.693-1.486-6.015l-15.953-10.097c-2.068-1.314-4.875-0.656-6.195,1.509
				C138.133,264.872,138.783,267.668,140.891,268.934z"/>
			<linearGradient id="SVGID_61_" gradientUnits="userSpaceOnUse" x1="127.377" y1="289.1157" x2="152.8506" y2="289.1157">
				<stop  offset="0" style="stop-color:#D1D3D4"/>
				<stop  offset="0.5" style="stop-color:#FFFFFF"/>
				<stop  offset="1" style="stop-color:#D1D3D4"/>
			</linearGradient>
			<path fill="url(#SVGID_61_)" d="M129.701,288.684l16.674,8.858c2.174,1.146,4.836,0.384,5.961-1.688
				c1.139-2.066,0.324-4.726-1.814-5.928l-16.48-9.218c-2.139-1.204-4.873-0.375-6.096,1.845
				C126.73,284.78,127.531,287.537,129.701,288.684z"/>
			<linearGradient id="SVGID_62_" gradientUnits="userSpaceOnUse" x1="117.0586" y1="308.8711" x2="142.9971" y2="308.8711">
				<stop  offset="0" style="stop-color:#D1D3D4"/>
				<stop  offset="0.5" style="stop-color:#FFFFFF"/>
				<stop  offset="1" style="stop-color:#D1D3D4"/>
			</linearGradient>
			<path fill="url(#SVGID_62_)" d="M119.6,309.01l17.133,7.939c2.225,1.026,4.846,0.122,5.863-2.007
				c0.998-2.137,0.078-4.73-2.133-5.819l-16.955-8.31c-2.191-1.081-4.916-0.121-5.992,2.174
				C116.42,305.275,117.365,307.981,119.6,309.01z"/>
			<linearGradient id="SVGID_63_" gradientUnits="userSpaceOnUse" x1="107.856" y1="329.1465" x2="134.2192" y2="329.1465">
				<stop  offset="0" style="stop-color:#D1D3D4"/>
				<stop  offset="0.5" style="stop-color:#FFFFFF"/>
				<stop  offset="1" style="stop-color:#D1D3D4"/>
			</linearGradient>
			<path fill="url(#SVGID_63_)" d="M110.619,329.86l17.541,6.993c2.289,0.908,4.842-0.144,5.742-2.323
				c0.906-2.18-0.199-4.734-2.449-5.693l-17.381-7.378c-2.266-0.967-4.891,0.159-5.863,2.498
				C107.238,326.301,108.344,328.958,110.619,329.86z"/>
			<linearGradient id="SVGID_64_" gradientUnits="userSpaceOnUse" x1="99.7993" y1="349.8838" x2="126.5234" y2="349.8838">
				<stop  offset="0" style="stop-color:#D1D3D4"/>
				<stop  offset="0.5" style="stop-color:#FFFFFF"/>
				<stop  offset="1" style="stop-color:#D1D3D4"/>
			</linearGradient>
			<path fill="url(#SVGID_64_)" d="M102.787,351.166l17.893,6.028c2.322,0.775,4.844-0.404,5.611-2.631
				c0.771-2.232-0.438-4.713-2.752-5.553l-17.756-6.416c-2.301-0.838-4.895,0.416-5.725,2.813
				C99.23,347.804,100.451,350.387,102.787,351.166z"/>
			<linearGradient id="SVGID_65_" gradientUnits="userSpaceOnUse" x1="92.9053" y1="371.0215" x2="119.9497" y2="371.0215">
				<stop  offset="0" style="stop-color:#D1D3D4"/>
				<stop  offset="0.5" style="stop-color:#FFFFFF"/>
				<stop  offset="1" style="stop-color:#D1D3D4"/>
			</linearGradient>
			<path fill="url(#SVGID_65_)" d="M96.135,372.873l18.197,5.041c2.377,0.654,4.783-0.674,5.455-2.937
				c0.65-2.267-0.709-4.684-3.049-5.393l-18.086-5.437c-2.354-0.714-4.854,0.683-5.557,3.121
				C92.373,369.699,93.777,372.225,96.135,372.873z"/>
			<linearGradient id="SVGID_66_" gradientUnits="userSpaceOnUse" x1="87.2095" y1="392.4941" x2="114.5103" y2="392.4941">
				<stop  offset="0" style="stop-color:#D1D3D4"/>
				<stop  offset="0.5" style="stop-color:#FFFFFF"/>
				<stop  offset="1" style="stop-color:#D1D3D4"/>
			</linearGradient>
			<path fill="url(#SVGID_66_)" d="M90.67,394.907l18.443,4.041c2.398,0.521,4.77-0.928,5.285-3.229
				c0.545-2.298-0.951-4.638-3.338-5.22l-18.35-4.442c-2.383-0.582-4.801,0.949-5.387,3.418
				C86.771,391.95,88.271,394.385,90.67,394.907z"/>
			<linearGradient id="SVGID_67_" gradientUnits="userSpaceOnUse" x1="82.7183" y1="414.2402" x2="110.2207" y2="414.2402">
				<stop  offset="0" style="stop-color:#D1D3D4"/>
				<stop  offset="0.5" style="stop-color:#FFFFFF"/>
				<stop  offset="1" style="stop-color:#D1D3D4"/>
			</linearGradient>
			<path fill="url(#SVGID_67_)" d="M86.422,417.205l18.633,3.031c2.418,0.39,4.697-1.188,5.107-3.511
				c0.389-2.328-1.199-4.576-3.619-5.029l-18.566-3.437c-2.406-0.451-4.77,1.205-5.188,3.706
				C82.352,414.464,83.988,416.814,86.422,417.205z"/>
			<linearGradient id="SVGID_68_" gradientUnits="userSpaceOnUse" x1="79.4385" y1="436.1943" x2="107.0952" y2="436.1943">
				<stop  offset="0" style="stop-color:#D1D3D4"/>
				<stop  offset="0.5" style="stop-color:#FFFFFF"/>
				<stop  offset="1" style="stop-color:#D1D3D4"/>
			</linearGradient>
			<path fill="url(#SVGID_68_)" d="M83.385,439.699l18.773,2.018c2.449,0.261,4.613-1.442,4.908-3.784
				c0.275-2.344-1.463-4.508-3.891-4.826l-18.727-2.424c-2.439-0.32-4.676,1.465-4.975,3.98
				C79.158,437.181,80.955,439.441,83.385,439.699z"/>
			<linearGradient id="SVGID_69_" gradientUnits="userSpaceOnUse" x1="77.3765" y1="458.2905" x2="105.123" y2="458.2905">
				<stop  offset="0" style="stop-color:#D1D3D4"/>
				<stop  offset="0.5" style="stop-color:#FFFFFF"/>
				<stop  offset="1" style="stop-color:#D1D3D4"/>
			</linearGradient>
			<path fill="url(#SVGID_69_)" d="M81.564,462.321l18.855,1.005c2.453,0.127,4.551-1.688,4.693-4.043
				c0.162-2.356-1.695-4.424-4.143-4.613l-18.828-1.408c-2.447-0.189-4.58,1.713-4.758,4.242
				C77.234,460.035,79.115,462.193,81.564,462.321z"/>
			<linearGradient id="SVGID_70_" gradientUnits="userSpaceOnUse" x1="76.5332" y1="480.4639" x2="104.3164" y2="480.4639">
				<stop  offset="0" style="stop-color:#D1D3D4"/>
				<stop  offset="0.5" style="stop-color:#FFFFFF"/>
				<stop  offset="1" style="stop-color:#D1D3D4"/>
			</linearGradient>
			<path fill="url(#SVGID_70_)" d="M80.957,485.002h18.879c2.455-0.004,4.467-1.93,4.48-4.289c0.023-2.362-1.92-4.327-4.379-4.387
				l-18.877-0.399c-2.449-0.057-4.5,1.957-4.527,4.492C76.516,482.951,78.502,485.007,80.957,485.002z"/>
			<linearGradient id="SVGID_71_" gradientUnits="userSpaceOnUse" x1="76.8984" y1="502.8506" x2="104.6655" y2="502.8506">
				<stop  offset="0" style="stop-color:#D1D3D4"/>
				<stop  offset="0.5" style="stop-color:#FFFFFF"/>
				<stop  offset="1" style="stop-color:#D1D3D4"/>
			</linearGradient>
			<path fill="url(#SVGID_71_)" d="M100.42,506.677c2.443-0.134,4.338-2.162,4.242-4.521c-0.117-2.357-2.148-4.218-4.609-4.144
				l-18.871,0.604c-2.445,0.071-4.402,2.193-4.277,4.724c0.105,2.532,2.203,4.48,4.66,4.345L100.42,506.677z"/>
			<linearGradient id="SVGID_72_" gradientUnits="userSpaceOnUse" x1="78.4712" y1="524.9844" x2="106.1655" y2="524.9844">
				<stop  offset="0" style="stop-color:#D1D3D4"/>
				<stop  offset="0.5" style="stop-color:#FFFFFF"/>
				<stop  offset="1" style="stop-color:#D1D3D4"/>
			</linearGradient>
			<path fill="url(#SVGID_72_)" d="M83.387,530.306l18.771-2.019c2.449-0.27,4.201-2.392,3.99-4.742
				c-0.23-2.348-2.385-4.095-4.824-3.892l-18.813,1.615c-2.453,0.205-4.266,2.426-4.018,4.949
				C78.723,528.742,80.951,530.574,83.387,530.306z"/>
			<linearGradient id="SVGID_73_" gradientUnits="userSpaceOnUse" x1="81.2598" y1="547.0049" x2="108.8301" y2="547.0049">
				<stop  offset="0" style="stop-color:#D1D3D4"/>
				<stop  offset="0.5" style="stop-color:#FFFFFF"/>
				<stop  offset="1" style="stop-color:#D1D3D4"/>
			</linearGradient>
			<path fill="url(#SVGID_73_)" d="M86.422,552.8l18.635-3.032c2.426-0.401,4.084-2.619,3.725-4.948
				c-0.34-2.338-2.598-3.962-5.027-3.623l-18.697,2.625c-2.434,0.336-4.115,2.652-3.746,5.161
				C81.697,551.487,84.002,553.2,86.422,552.8z"/>
			<linearGradient id="SVGID_74_" gradientUnits="userSpaceOnUse" x1="85.2681" y1="568.8418" x2="112.6606" y2="568.8418">
				<stop  offset="0" style="stop-color:#D1D3D4"/>
				<stop  offset="0.5" style="stop-color:#FFFFFF"/>
				<stop  offset="1" style="stop-color:#D1D3D4"/>
			</linearGradient>
			<path fill="url(#SVGID_74_)" d="M109.115,571.056c2.389-0.528,3.941-2.836,3.457-5.145c-0.49-2.309-2.799-3.813-5.215-3.345
				l-18.529,3.638c-2.402,0.472-3.984,2.879-3.459,5.36c0.521,2.48,2.898,4.064,5.305,3.536L109.115,571.056z"/>
			<linearGradient id="SVGID_75_" gradientUnits="userSpaceOnUse" x1="90.4878" y1="590.4316" x2="117.6382" y2="590.4316">
				<stop  offset="0" style="stop-color:#D1D3D4"/>
				<stop  offset="0.5" style="stop-color:#FFFFFF"/>
				<stop  offset="1" style="stop-color:#D1D3D4"/>
			</linearGradient>
			<path fill="url(#SVGID_75_)" d="M117.502,586.767c-0.611-2.278-3.018-3.653-5.393-3.054l-18.301,4.642
				c-2.385,0.6-3.816,3.088-3.162,5.536c0.635,2.455,3.135,3.899,5.492,3.241l18.195-5.043
				C116.707,591.427,118.094,589.05,117.502,586.767z"/>
			<linearGradient id="SVGID_76_" gradientUnits="userSpaceOnUse" x1="96.9038" y1="611.7109" x2="123.7646" y2="611.7109">
				<stop  offset="0" style="stop-color:#D1D3D4"/>
				<stop  offset="0.5" style="stop-color:#FFFFFF"/>
				<stop  offset="1" style="stop-color:#D1D3D4"/>
			</linearGradient>
			<path fill="url(#SVGID_76_)" d="M123.555,607.32c-0.717-2.249-3.205-3.483-5.549-2.758l-18.018,5.637
				c-2.346,0.729-3.631,3.285-2.861,5.701c0.799,2.406,3.338,3.728,5.664,2.937l17.893-6.028
				C123.01,612.023,124.297,609.561,123.555,607.32z"/>
			<linearGradient id="SVGID_77_" gradientUnits="userSpaceOnUse" x1="104.4951" y1="632.6152" x2="131.0107" y2="632.6152">
				<stop  offset="0" style="stop-color:#D1D3D4"/>
				<stop  offset="0.5" style="stop-color:#FFFFFF"/>
				<stop  offset="1" style="stop-color:#D1D3D4"/>
			</linearGradient>
			<path fill="url(#SVGID_77_)" d="M130.732,627.513c-0.863-2.195-3.389-3.307-5.691-2.449l-17.688,6.609
				c-2.297,0.852-3.467,3.487-2.539,5.848c0.908,2.368,3.527,3.539,5.809,2.624l17.539-6.994
				C130.438,632.238,131.576,629.714,130.732,627.513z"/>
			<linearGradient id="SVGID_78_" gradientUnits="userSpaceOnUse" x1="113.2495" y1="653.084" x2="139.3613" y2="653.084">
				<stop  offset="0" style="stop-color:#D1D3D4"/>
				<stop  offset="0.5" style="stop-color:#FFFFFF"/>
				<stop  offset="1" style="stop-color:#D1D3D4"/>
			</linearGradient>
			<path fill="url(#SVGID_78_)" d="M138.99,647.287c-0.957-2.158-3.57-3.113-5.82-2.135l-17.299,7.564
				c-2.254,0.978-3.244,3.66-2.215,5.975c1.043,2.314,3.727,3.339,5.949,2.303l17.131-7.94
				C138.965,652.018,139.961,649.434,138.99,647.287z"/>
			<linearGradient id="SVGID_79_" gradientUnits="userSpaceOnUse" x1="123.1187" y1="673.0527" x2="148.7866" y2="673.0527">
				<stop  offset="0" style="stop-color:#D1D3D4"/>
				<stop  offset="0.5" style="stop-color:#FFFFFF"/>
				<stop  offset="1" style="stop-color:#D1D3D4"/>
			</linearGradient>
			<path fill="url(#SVGID_79_)" d="M148.32,666.58c-1.098-2.092-3.723-2.922-5.924-1.818l-16.863,8.495
				c-2.188,1.095-3.068,3.845-1.889,6.089c1.164,2.254,3.887,3.136,6.061,1.979l16.674-8.858
				C148.539,671.312,149.402,668.675,148.32,666.58z"/>
			<linearGradient id="SVGID_80_" gradientUnits="userSpaceOnUse" x1="134.0928" y1="692.4697" x2="159.2593" y2="692.4697">
				<stop  offset="0" style="stop-color:#D1D3D4"/>
				<stop  offset="0.5" style="stop-color:#FFFFFF"/>
				<stop  offset="1" style="stop-color:#D1D3D4"/>
			</linearGradient>
			<path fill="url(#SVGID_80_)" d="M158.68,685.341c-1.186-2.039-3.893-2.705-6.016-1.492l-16.377,9.398
				c-2.141,1.222-2.83,3.99-1.555,6.184c1.287,2.183,4.066,2.912,6.16,1.642l16.172-9.75
				C159.17,690.045,159.873,687.374,158.68,685.341z"/>
			<linearGradient id="SVGID_81_" gradientUnits="userSpaceOnUse" x1="146.1191" y1="711.2764" x2="170.7446" y2="711.2764">
				<stop  offset="0" style="stop-color:#D1D3D4"/>
				<stop  offset="0.5" style="stop-color:#FFFFFF"/>
				<stop  offset="1" style="stop-color:#D1D3D4"/>
			</linearGradient>
			<path fill="url(#SVGID_81_)" d="M170.047,703.513c-1.318-1.958-4.016-2.498-6.086-1.163l-15.844,10.269
				c-2.057,1.327-2.633,4.154-1.223,6.26c1.402,2.11,4.205,2.694,6.242,1.308l15.617-10.61
				C170.777,708.197,171.35,705.48,170.047,703.513z"/>
			<linearGradient id="SVGID_82_" gradientUnits="userSpaceOnUse" x1="159.1738" y1="729.418" x2="183.2095" y2="729.418">
				<stop  offset="0" style="stop-color:#D1D3D4"/>
				<stop  offset="0.5" style="stop-color:#FFFFFF"/>
				<stop  offset="1" style="stop-color:#D1D3D4"/>
			</linearGradient>
			<path fill="url(#SVGID_82_)" d="M182.377,721.051c-1.402-1.9-4.164-2.271-6.141-0.836l-15.27,11.113
				c-1.994,1.444-2.381,4.271-0.877,6.311c1.514,2.037,4.354,2.455,6.303,0.971l15.021-11.438
				C183.369,725.674,183.785,722.943,182.377,721.051z"/>
			<linearGradient id="SVGID_83_" gradientUnits="userSpaceOnUse" x1="173.2056" y1="746.8467" x2="196.6079" y2="746.8467">
				<stop  offset="0" style="stop-color:#D1D3D4"/>
				<stop  offset="0.5" style="stop-color:#FFFFFF"/>
				<stop  offset="1" style="stop-color:#D1D3D4"/>
			</linearGradient>
			<path fill="url(#SVGID_83_)" d="M195.639,737.894c-1.523-1.806-4.262-2.056-6.178-0.504l-14.645,11.916
				c-1.9,1.541-2.17,4.415-0.537,6.354c1.617,1.949,4.471,2.226,6.342,0.63l14.385-12.233
				C196.867,742.469,197.145,739.708,195.639,737.894z"/>
			<linearGradient id="SVGID_84_" gradientUnits="userSpaceOnUse" x1="188.1797" y1="763.5078" x2="210.9111" y2="763.5078">
				<stop  offset="0" style="stop-color:#D1D3D4"/>
				<stop  offset="0.5" style="stop-color:#FFFFFF"/>
				<stop  offset="1" style="stop-color:#D1D3D4"/>
			</linearGradient>
			<path fill="url(#SVGID_84_)" d="M209.783,753.999c-1.594-1.738-4.381-1.809-6.193-0.167l-13.984,12.69
				c-1.824,1.65-1.908,4.503-0.193,6.37c1.725,1.857,4.596,1.973,6.371,0.283l13.705-12.987
				C211.27,758.495,211.391,755.73,209.783,753.999z"/>
			<linearGradient id="SVGID_85_" gradientUnits="userSpaceOnUse" x1="204.0479" y1="779.3594" x2="226.0635" y2="779.3594">
				<stop  offset="0" style="stop-color:#D1D3D4"/>
				<stop  offset="0.5" style="stop-color:#FFFFFF"/>
				<stop  offset="1" style="stop-color:#D1D3D4"/>
			</linearGradient>
			<path fill="url(#SVGID_85_)" d="M224.783,769.319c-1.709-1.632-4.461-1.585-6.195,0.165l-13.281,13.424
				c-1.721,1.736-1.684,4.621,0.15,6.371c1.818,1.768,4.684,1.733,6.375-0.056l12.984-13.706
				C226.496,773.739,226.473,770.963,224.783,769.319z"/>
			<linearGradient id="SVGID_86_" gradientUnits="userSpaceOnUse" x1="220.7651" y1="794.3496" x2="242.0347" y2="794.3496">
				<stop  offset="0" style="stop-color:#D1D3D4"/>
				<stop  offset="0.5" style="stop-color:#FFFFFF"/>
				<stop  offset="1" style="stop-color:#D1D3D4"/>
			</linearGradient>
			<path fill="url(#SVGID_86_)" d="M240.578,783.814c-1.773-1.557-4.545-1.329-6.178,0.497l-12.539,14.12
				c-1.637,1.837-1.414,4.682,0.492,6.355c1.916,1.66,4.777,1.47,6.361-0.401L240.949,790
				C242.535,788.124,242.359,785.359,240.578,783.814z"/>
			<linearGradient id="SVGID_87_" gradientUnits="userSpaceOnUse" x1="238.2881" y1="808.4414" x2="258.7666" y2="808.4414">
				<stop  offset="0" style="stop-color:#D1D3D4"/>
				<stop  offset="0.5" style="stop-color:#FFFFFF"/>
				<stop  offset="1" style="stop-color:#D1D3D4"/>
			</linearGradient>
			<path fill="url(#SVGID_87_)" d="M257.137,797.43c-1.875-1.436-4.605-1.09-6.143,0.833l-11.758,14.772
				c-1.529,1.91-1.178,4.774,0.83,6.322c1.998,1.558,4.846,1.216,6.332-0.743l11.438-15.022
				C259.316,801.637,258.992,798.887,257.137,797.43z"/>
			<linearGradient id="SVGID_88_" gradientUnits="userSpaceOnUse" x1="256.5601" y1="821.584" x2="276.2212" y2="821.584">
				<stop  offset="0" style="stop-color:#D1D3D4"/>
				<stop  offset="0.5" style="stop-color:#FFFFFF"/>
				<stop  offset="1" style="stop-color:#D1D3D4"/>
			</linearGradient>
			<path fill="url(#SVGID_88_)" d="M274.398,810.142c-1.932-1.356-4.664-0.834-6.092,1.161l-10.943,15.387
				c-1.428,2-0.9,4.809,1.174,6.267c2.084,1.442,4.91,0.944,6.283-1.089l10.611-15.616
				C276.807,814.213,276.338,811.486,274.398,810.142z"/>
			<linearGradient id="SVGID_89_" gradientUnits="userSpaceOnUse" x1="275.5356" y1="833.75" x2="294.3389" y2="833.75">
				<stop  offset="0" style="stop-color:#D1D3D4"/>
				<stop  offset="0.5" style="stop-color:#FFFFFF"/>
				<stop  offset="1" style="stop-color:#D1D3D4"/>
			</linearGradient>
			<path fill="url(#SVGID_89_)" d="M292.324,821.893c-2.016-1.227-4.695-0.588-6.018,1.49l-10.096,15.953
				c-1.314,2.068-0.656,4.876,1.51,6.194c2.154,1.34,4.947,0.688,6.213-1.418l9.752-16.172
				C294.943,825.842,294.328,823.139,292.324,821.893z"/>
			<linearGradient id="SVGID_90_" gradientUnits="userSpaceOnUse" x1="295.1558" y1="844.8857" x2="313.0767" y2="844.8857">
				<stop  offset="0" style="stop-color:#D1D3D4"/>
				<stop  offset="0.5" style="stop-color:#FFFFFF"/>
				<stop  offset="1" style="stop-color:#D1D3D4"/>
			</linearGradient>
			<path fill="url(#SVGID_90_)" d="M310.854,832.666c-2.068-1.143-4.725-0.323-5.926,1.813l-9.219,16.479
				c-1.205,2.143-0.375,4.877,1.846,6.101c2.227,1.21,4.984,0.408,6.129-1.758l8.857-16.675
				C313.691,836.453,312.926,833.791,310.854,832.666z"/>
			<linearGradient id="SVGID_91_" gradientUnits="userSpaceOnUse" x1="315.3701" y1="854.9727" x2="332.3726" y2="854.9727">
				<stop  offset="0" style="stop-color:#D1D3D4"/>
				<stop  offset="0.5" style="stop-color:#FFFFFF"/>
				<stop  offset="1" style="stop-color:#D1D3D4"/>
			</linearGradient>
			<path fill="url(#SVGID_91_)" d="M329.945,842.407c-2.139-1.001-4.73-0.081-5.818,2.127l-8.313,16.956
				c-1.082,2.194-0.123,4.919,2.174,5.996c2.287,1.093,4.994,0.149,6.023-2.084l7.938-17.133
				C332.975,846.045,332.072,843.426,329.945,842.407z"/>
			<linearGradient id="SVGID_92_" gradientUnits="userSpaceOnUse" x1="336.1143" y1="863.9629" x2="352.1831" y2="863.9629">
				<stop  offset="0" style="stop-color:#D1D3D4"/>
				<stop  offset="0.5" style="stop-color:#FFFFFF"/>
				<stop  offset="1" style="stop-color:#D1D3D4"/>
			</linearGradient>
			<path fill="url(#SVGID_92_)" d="M349.531,851.1c-2.178-0.908-4.734,0.195-5.695,2.444l-7.375,17.384
				c-0.965,2.266,0.154,4.892,2.496,5.865c2.344,0.966,5.004-0.138,5.902-2.41l6.998-17.541
				C352.764,854.554,351.713,852.001,349.531,851.1z"/>
			<linearGradient id="SVGID_93_" gradientUnits="userSpaceOnUse" x1="357.335" y1="871.8379" x2="372.4336" y2="871.8379">
				<stop  offset="0" style="stop-color:#D1D3D4"/>
				<stop  offset="0.5" style="stop-color:#FFFFFF"/>
				<stop  offset="1" style="stop-color:#D1D3D4"/>
			</linearGradient>
			<path fill="url(#SVGID_93_)" d="M369.561,858.708c-2.227-0.771-4.707,0.438-5.549,2.749l-6.418,17.763
				c-0.836,2.3,0.418,4.892,2.813,5.722c2.398,0.827,4.98-0.393,5.762-2.727l6.027-17.896
				C372.971,861.998,371.793,859.48,369.561,858.708z"/>
			<linearGradient id="SVGID_94_" gradientUnits="userSpaceOnUse" x1="378.9619" y1="878.5723" x2="393.0835" y2="878.5723">
				<stop  offset="0" style="stop-color:#D1D3D4"/>
				<stop  offset="0.5" style="stop-color:#FFFFFF"/>
				<stop  offset="1" style="stop-color:#D1D3D4"/>
			</linearGradient>
			<path fill="url(#SVGID_94_)" d="M389.979,865.214c-2.266-0.653-4.682,0.706-5.395,3.052l-5.436,18.08
				c-0.713,2.356,0.682,4.86,3.123,5.562c2.43,0.717,4.955-0.683,5.602-3.043l5.045-18.194
				C393.568,868.294,392.24,865.884,389.979,865.214z"/>
			<linearGradient id="SVGID_95_" gradientUnits="userSpaceOnUse" x1="400.9351" y1="884.1406" x2="414.0557" y2="884.1406">
				<stop  offset="0" style="stop-color:#D1D3D4"/>
				<stop  offset="0.5" style="stop-color:#FFFFFF"/>
				<stop  offset="1" style="stop-color:#D1D3D4"/>
			</linearGradient>
			<path fill="url(#SVGID_95_)" d="M410.719,870.603c-2.293-0.545-4.637,0.952-5.217,3.333l-4.443,18.354
				c-0.582,2.384,0.951,4.804,3.418,5.385c2.475,0.556,4.91-0.945,5.432-3.343l4.041-18.443
				C414.471,873.487,413.021,871.117,410.719,870.603z"/>
			<linearGradient id="SVGID_96_" gradientUnits="userSpaceOnUse" x1="423.186" y1="888.5332" x2="435.2974" y2="888.5332">
				<stop  offset="0" style="stop-color:#D1D3D4"/>
				<stop  offset="0.5" style="stop-color:#FFFFFF"/>
				<stop  offset="1" style="stop-color:#D1D3D4"/>
			</linearGradient>
			<path fill="url(#SVGID_96_)" d="M431.725,874.841c-2.326-0.389-4.576,1.195-5.029,3.616l-3.436,18.565
				c-0.449,2.404,1.205,4.772,3.707,5.191c2.496,0.438,4.85-1.201,5.238-3.632l3.033-18.635
				C435.627,877.528,434.051,875.245,431.725,874.841z"/>
			<linearGradient id="SVGID_97_" gradientUnits="userSpaceOnUse" x1="445.646" y1="891.7344" x2="456.7446" y2="891.7344">
				<stop  offset="0" style="stop-color:#D1D3D4"/>
				<stop  offset="0.5" style="stop-color:#FFFFFF"/>
				<stop  offset="1" style="stop-color:#D1D3D4"/>
			</linearGradient>
			<path fill="url(#SVGID_97_)" d="M452.932,877.936c-2.34-0.275-4.506,1.463-4.824,3.889l-2.424,18.729
				c-0.322,2.44,1.465,4.676,3.982,4.974c2.516,0.315,4.779-1.479,5.035-3.911l2.018-18.772
				C456.977,880.391,455.275,878.23,452.932,877.936z"/>
			<linearGradient id="SVGID_98_" gradientUnits="userSpaceOnUse" x1="468.2485" y1="893.752" x2="478.334" y2="893.752">
				<stop  offset="0" style="stop-color:#D1D3D4"/>
				<stop  offset="0.5" style="stop-color:#FFFFFF"/>
				<stop  offset="1" style="stop-color:#D1D3D4"/>
			</linearGradient>
			<path fill="url(#SVGID_98_)" d="M474.283,879.888c-2.355-0.163-4.422,1.695-4.611,4.143l-1.41,18.826
				c-0.191,2.448,1.717,4.584,4.242,4.761c2.529,0.151,4.693-1.731,4.818-4.18l1.006-18.856
				C478.453,882.13,476.639,880.031,474.283,879.888z"/>
			<linearGradient id="SVGID_99_" gradientUnits="userSpaceOnUse" x1="490.9282" y1="894.5762" x2="500.0039" y2="894.5762">
				<stop  offset="0" style="stop-color:#D1D3D4"/>
				<stop  offset="0.5" style="stop-color:#FFFFFF"/>
				<stop  offset="1" style="stop-color:#D1D3D4"/>
			</linearGradient>
			<path fill="url(#SVGID_99_)" d="M495.713,880.686c-2.361-0.026-4.328,1.917-4.385,4.377l-0.398,18.878
				c-0.061,2.449,1.953,4.5,4.488,4.525c2.537,0.018,4.59-1.965,4.586-4.421v-18.882C499.998,882.708,498.074,880.7,495.713,880.686
				z"/>
			<linearGradient id="SVGID_100_" gradientUnits="userSpaceOnUse" x1="513.0098" y1="894.2207" x2="522.6904" y2="894.2207">
				<stop  offset="0" style="stop-color:#D1D3D4"/>
				<stop  offset="0.5" style="stop-color:#FFFFFF"/>
				<stop  offset="1" style="stop-color:#D1D3D4"/>
			</linearGradient>
			<path fill="url(#SVGID_100_)" d="M517.156,880.341c-2.355,0.116-4.219,2.146-4.145,4.608l0.604,18.871
				c0.074,2.443,2.193,4.403,4.725,4.278c2.533-0.106,4.48-2.205,4.344-4.665l-1.004-18.853
				C521.543,882.138,519.516,880.241,517.156,880.341z"/>
			<linearGradient id="SVGID_101_" gradientUnits="userSpaceOnUse" x1="534.6416" y1="892.6826" x2="545.333" y2="892.6826">
				<stop  offset="0" style="stop-color:#D1D3D4"/>
				<stop  offset="0.5" style="stop-color:#FFFFFF"/>
				<stop  offset="1" style="stop-color:#D1D3D4"/>
			</linearGradient>
			<path fill="url(#SVGID_101_)" d="M543.287,882.843c-0.27-2.449-2.393-4.202-4.742-3.992c-2.348,0.232-4.094,2.386-3.887,4.827
				l1.613,18.812c0.201,2.455,2.424,4.269,4.943,4.019c2.527-0.229,4.359-2.46,4.092-4.893L543.287,882.843z"/>
			<linearGradient id="SVGID_102_" gradientUnits="userSpaceOnUse" x1="556.1514" y1="889.9551" x2="567.8584" y2="889.9551">
				<stop  offset="0" style="stop-color:#D1D3D4"/>
				<stop  offset="0.5" style="stop-color:#FFFFFF"/>
				<stop  offset="1" style="stop-color:#D1D3D4"/>
			</linearGradient>
			<path fill="url(#SVGID_102_)" d="M564.768,879.943c-0.398-2.424-2.617-4.084-4.949-3.725c-2.334,0.344-3.957,2.6-3.623,5.029
				l2.627,18.697c0.338,2.434,2.652,4.114,5.16,3.742c2.504-0.386,4.217-2.687,3.818-5.105L564.768,879.943z"/>
			<linearGradient id="SVGID_103_" gradientUnits="userSpaceOnUse" x1="577.4824" y1="886.0371" x2="590.2012" y2="886.0371">
				<stop  offset="0" style="stop-color:#D1D3D4"/>
				<stop  offset="0.5" style="stop-color:#FFFFFF"/>
				<stop  offset="1" style="stop-color:#D1D3D4"/>
			</linearGradient>
			<path fill="url(#SVGID_103_)" d="M586.057,875.885c-0.527-2.391-2.838-3.94-5.146-3.454c-2.307,0.488-3.811,2.8-3.342,5.214
				l3.639,18.53c0.467,2.4,2.873,3.981,5.355,3.46c2.482-0.524,4.068-2.901,3.535-5.307L586.057,875.885z"/>
			<linearGradient id="SVGID_104_" gradientUnits="userSpaceOnUse" x1="598.5732" y1="880.9395" x2="612.292" y2="880.9395">
				<stop  offset="0" style="stop-color:#D1D3D4"/>
				<stop  offset="0.5" style="stop-color:#FFFFFF"/>
				<stop  offset="1" style="stop-color:#D1D3D4"/>
			</linearGradient>
			<path fill="url(#SVGID_104_)" d="M607.09,870.666c-0.66-2.368-3.041-3.758-5.324-3.164c-2.277,0.608-3.65,3.017-3.053,5.391
				l4.643,18.302c0.6,2.384,3.084,3.814,5.535,3.161c2.455-0.636,3.9-3.135,3.242-5.491L607.09,870.666z"/>
			<linearGradient id="SVGID_105_" gradientUnits="userSpaceOnUse" x1="619.3574" y1="874.668" x2="634.0664" y2="874.668">
				<stop  offset="0" style="stop-color:#D1D3D4"/>
				<stop  offset="0.5" style="stop-color:#FFFFFF"/>
				<stop  offset="1" style="stop-color:#D1D3D4"/>
			</linearGradient>
			<path fill="url(#SVGID_105_)" d="M627.811,864.318c-0.787-2.324-3.252-3.613-5.488-2.872c-2.246,0.718-3.484,3.205-2.756,5.547
				l5.633,18.022c0.727,2.345,3.285,3.627,5.703,2.859c2.408-0.797,3.723-3.338,2.936-5.664L627.811,864.318z"/>
			<linearGradient id="SVGID_106_" gradientUnits="userSpaceOnUse" x1="639.7725" y1="867.249" x2="655.4561" y2="867.249">
				<stop  offset="0" style="stop-color:#D1D3D4"/>
				<stop  offset="0.5" style="stop-color:#FFFFFF"/>
				<stop  offset="1" style="stop-color:#D1D3D4"/>
			</linearGradient>
			<path fill="url(#SVGID_106_)" d="M648.148,856.837c-0.91-2.275-3.434-3.41-5.637-2.568c-2.197,0.864-3.305,3.388-2.451,5.693
				l6.613,17.687c0.852,2.295,3.486,3.467,5.846,2.54c2.369-0.907,3.539-3.533,2.627-5.81L648.148,856.837z"/>
			<linearGradient id="SVGID_107_" gradientUnits="userSpaceOnUse" x1="659.7686" y1="858.6953" x2="676.3965" y2="858.6953">
				<stop  offset="0" style="stop-color:#D1D3D4"/>
				<stop  offset="0.5" style="stop-color:#FFFFFF"/>
				<stop  offset="1" style="stop-color:#D1D3D4"/>
			</linearGradient>
			<path fill="url(#SVGID_107_)" d="M668.055,848.266c-1.037-2.229-3.619-3.227-5.768-2.253c-2.156,0.955-3.113,3.569-2.135,5.818
				l7.563,17.302c0.98,2.25,3.66,3.242,5.977,2.213c2.311-1.044,3.336-3.729,2.303-5.947L668.055,848.266z"/>
			<linearGradient id="SVGID_108_" gradientUnits="userSpaceOnUse" x1="679.2734" y1="849.0479" x2="696.833" y2="849.0479">
				<stop  offset="0" style="stop-color:#D1D3D4"/>
				<stop  offset="0.5" style="stop-color:#FFFFFF"/>
				<stop  offset="1" style="stop-color:#D1D3D4"/>
			</linearGradient>
			<path fill="url(#SVGID_108_)" d="M687.463,838.621c-1.15-2.157-3.787-3.022-5.883-1.941c-2.09,1.1-2.922,3.723-1.816,5.926
				l8.492,16.865c1.098,2.182,3.846,3.064,6.092,1.888c2.252-1.165,3.135-3.889,1.975-6.062L687.463,838.621z"/>
			<linearGradient id="SVGID_109_" gradientUnits="userSpaceOnUse" x1="698.2441" y1="838.3252" x2="716.6953" y2="838.3252">
				<stop  offset="0" style="stop-color:#D1D3D4"/>
				<stop  offset="0.5" style="stop-color:#FFFFFF"/>
				<stop  offset="1" style="stop-color:#D1D3D4"/>
			</linearGradient>
			<path fill="url(#SVGID_109_)" d="M706.322,827.937c-1.273-2.103-3.945-2.81-5.98-1.614c-2.041,1.188-2.705,3.892-1.492,6.014
				l9.396,16.379c1.221,2.138,3.99,2.83,6.182,1.555c2.186-1.289,2.912-4.065,1.645-6.161L706.322,827.937z"/>
			<linearGradient id="SVGID_110_" gradientUnits="userSpaceOnUse" x1="716.6133" y1="826.5693" x2="735.9375" y2="826.5693">
				<stop  offset="0" style="stop-color:#D1D3D4"/>
				<stop  offset="0.5" style="stop-color:#FFFFFF"/>
				<stop  offset="1" style="stop-color:#D1D3D4"/>
			</linearGradient>
			<path fill="url(#SVGID_110_)" d="M724.576,816.247c-1.381-2.022-4.098-2.596-6.063-1.294c-1.959,1.315-2.502,4.019-1.166,6.087
				l10.271,15.846c1.326,2.056,4.152,2.633,6.258,1.222c2.111-1.405,2.695-4.207,1.307-6.243L724.576,816.247z"/>
			<linearGradient id="SVGID_111_" gradientUnits="userSpaceOnUse" x1="734.3408" y1="813.8105" x2="754.4951" y2="813.8105">
				<stop  offset="0" style="stop-color:#D1D3D4"/>
				<stop  offset="0.5" style="stop-color:#FFFFFF"/>
				<stop  offset="1" style="stop-color:#D1D3D4"/>
			</linearGradient>
			<path fill="url(#SVGID_111_)" d="M742.168,803.587c-1.492-1.954-4.225-2.369-6.119-0.963c-1.9,1.401-2.27,4.162-0.834,6.144
				l11.109,15.268c1.449,1.993,4.275,2.382,6.314,0.875c2.035-1.51,2.457-4.355,0.969-6.3L742.168,803.587z"/>
			<linearGradient id="SVGID_112_" gradientUnits="userSpaceOnUse" x1="751.3652" y1="800.0938" x2="772.3262" y2="800.0938">
				<stop  offset="0" style="stop-color:#D1D3D4"/>
				<stop  offset="0.5" style="stop-color:#FFFFFF"/>
				<stop  offset="1" style="stop-color:#D1D3D4"/>
			</linearGradient>
			<path fill="url(#SVGID_112_)" d="M759.057,789.996c-1.588-1.864-4.35-2.14-6.166-0.634c-1.805,1.522-2.053,4.264-0.502,6.176
				l11.92,14.647c1.541,1.899,4.41,2.169,6.35,0.537c1.951-1.622,2.229-4.471,0.631-6.341L759.057,789.996z"/>
			<linearGradient id="SVGID_113_" gradientUnits="userSpaceOnUse" x1="767.6465" y1="785.4561" x2="789.3672" y2="785.4561">
				<stop  offset="0" style="stop-color:#D1D3D4"/>
				<stop  offset="0.5" style="stop-color:#FFFFFF"/>
				<stop  offset="1" style="stop-color:#D1D3D4"/>
			</linearGradient>
			<path fill="url(#SVGID_113_)" d="M775.188,775.514c-1.695-1.782-4.459-1.901-6.188-0.3c-1.74,1.6-1.809,4.384-0.168,6.198
				l12.689,13.983c1.652,1.827,4.504,1.907,6.369,0.194c1.857-1.724,1.973-4.595,0.285-6.37L775.188,775.514z"/>
			<linearGradient id="SVGID_114_" gradientUnits="userSpaceOnUse" x1="783.1328" y1="769.9453" x2="805.584" y2="769.9453">
				<stop  offset="0" style="stop-color:#D1D3D4"/>
				<stop  offset="0.5" style="stop-color:#FFFFFF"/>
				<stop  offset="1" style="stop-color:#D1D3D4"/>
			</linearGradient>
			<path fill="url(#SVGID_114_)" d="M790.518,760.185c-1.783-1.682-4.557-1.656-6.199,0.035c-1.631,1.705-1.582,4.457,0.164,6.192
				l13.426,13.279c1.734,1.725,4.617,1.685,6.371-0.146c1.766-1.819,1.732-4.687-0.057-6.374L790.518,760.185z"/>
			<linearGradient id="SVGID_115_" gradientUnits="userSpaceOnUse" x1="797.7793" y1="753.6006" x2="820.918" y2="753.6006">
				<stop  offset="0" style="stop-color:#D1D3D4"/>
				<stop  offset="0.5" style="stop-color:#FFFFFF"/>
				<stop  offset="1" style="stop-color:#D1D3D4"/>
			</linearGradient>
			<path fill="url(#SVGID_115_)" d="M805,744.053c-1.879-1.588-4.643-1.412-6.186,0.371c-1.559,1.772-1.33,4.548,0.498,6.18
				l14.121,12.536c1.832,1.638,4.68,1.412,6.354-0.491c1.658-1.92,1.467-4.781-0.404-6.366L805,744.053z"/>
			<linearGradient id="SVGID_116_" gradientUnits="userSpaceOnUse" x1="811.5469" y1="736.4727" x2="835.335" y2="736.4727">
				<stop  offset="0" style="stop-color:#D1D3D4"/>
				<stop  offset="0.5" style="stop-color:#FFFFFF"/>
				<stop  offset="1" style="stop-color:#D1D3D4"/>
			</linearGradient>
			<path fill="url(#SVGID_116_)" d="M833.613,738.602l-15.025-11.438c-1.951-1.478-4.703-1.159-6.156,0.703
				c-1.439,1.869-1.094,4.604,0.828,6.141l14.773,11.759c1.912,1.529,4.775,1.176,6.322-0.834
				C835.914,742.935,835.572,740.088,833.613,738.602z"/>
			<linearGradient id="SVGID_117_" gradientUnits="userSpaceOnUse" x1="824.3867" y1="718.6104" x2="848.7813" y2="718.6104">
				<stop  offset="0" style="stop-color:#D1D3D4"/>
				<stop  offset="0.5" style="stop-color:#FFFFFF"/>
				<stop  offset="1" style="stop-color:#D1D3D4"/>
			</linearGradient>
			<path fill="url(#SVGID_117_)" d="M846.867,720.179l-15.617-10.607c-2.035-1.378-4.764-0.907-6.109,1.033
				c-1.355,1.93-0.834,4.66,1.164,6.087l15.385,10.945c2,1.427,4.809,0.902,6.264-1.172
				C849.398,724.381,848.898,721.555,846.867,720.179z"/>
			<linearGradient id="SVGID_118_" gradientUnits="userSpaceOnUse" x1="836.2695" y1="700.0635" x2="861.2266" y2="700.0635">
				<stop  offset="0" style="stop-color:#D1D3D4"/>
				<stop  offset="0.5" style="stop-color:#FFFFFF"/>
				<stop  offset="1" style="stop-color:#D1D3D4"/>
			</linearGradient>
			<path fill="url(#SVGID_118_)" d="M859.109,701.065l-16.17-9.747c-2.102-1.261-4.803-0.647-6.047,1.36
				c-1.23,2.014-0.588,4.693,1.488,6.013l15.953,10.097c2.068,1.316,4.877,0.658,6.195-1.507
				C861.867,705.128,861.217,702.331,859.109,701.065z"/>
			<linearGradient id="SVGID_119_" gradientUnits="userSpaceOnUse" x1="847.1484" y1="680.8838" x2="872.6221" y2="680.8838">
				<stop  offset="0" style="stop-color:#D1D3D4"/>
				<stop  offset="0.5" style="stop-color:#FFFFFF"/>
				<stop  offset="1" style="stop-color:#D1D3D4"/>
			</linearGradient>
			<path fill="url(#SVGID_119_)" d="M870.299,681.316l-16.674-8.858c-2.174-1.146-4.836-0.387-5.961,1.687
				c-1.141,2.065-0.324,4.728,1.813,5.929l16.48,9.22c2.141,1.201,4.875,0.374,6.098-1.845
				C873.27,685.221,872.467,682.463,870.299,681.316z"/>
			<linearGradient id="SVGID_120_" gradientUnits="userSpaceOnUse" x1="857.0029" y1="661.1289" x2="882.9404" y2="661.1289">
				<stop  offset="0" style="stop-color:#D1D3D4"/>
				<stop  offset="0.5" style="stop-color:#FFFFFF"/>
				<stop  offset="1" style="stop-color:#D1D3D4"/>
			</linearGradient>
			<path fill="url(#SVGID_120_)" d="M880.4,660.991l-17.133-7.941c-2.225-1.024-4.846-0.12-5.863,2.009
				c-0.998,2.136-0.08,4.729,2.131,5.817l16.957,8.31c2.191,1.083,4.914,0.123,5.992-2.172
				C883.578,664.725,882.635,662.02,880.4,660.991z"/>
			<linearGradient id="SVGID_121_" gradientUnits="userSpaceOnUse" x1="865.7803" y1="640.8535" x2="892.1436" y2="640.8535">
				<stop  offset="0" style="stop-color:#D1D3D4"/>
				<stop  offset="0.5" style="stop-color:#FFFFFF"/>
				<stop  offset="1" style="stop-color:#D1D3D4"/>
			</linearGradient>
			<path fill="url(#SVGID_121_)" d="M889.379,640.138l-17.539-6.992c-2.287-0.907-4.842,0.145-5.742,2.324
				c-0.906,2.179,0.199,4.734,2.447,5.694l17.381,7.376c2.268,0.967,4.893-0.158,5.865-2.499
				C892.76,643.699,891.656,641.041,889.379,640.138z"/>
			<linearGradient id="SVGID_122_" gradientUnits="userSpaceOnUse" x1="873.4746" y1="620.1172" x2="900.1992" y2="620.1172">
				<stop  offset="0" style="stop-color:#D1D3D4"/>
				<stop  offset="0.5" style="stop-color:#FFFFFF"/>
				<stop  offset="1" style="stop-color:#D1D3D4"/>
			</linearGradient>
			<path fill="url(#SVGID_122_)" d="M897.213,618.833l-17.895-6.028c-2.32-0.773-4.84,0.405-5.611,2.632
				c-0.771,2.231,0.438,4.712,2.75,5.552l17.758,6.417c2.301,0.839,4.895-0.415,5.725-2.812
				C900.768,622.196,899.547,619.614,897.213,618.833z"/>
			<linearGradient id="SVGID_123_" gradientUnits="userSpaceOnUse" x1="880.0498" y1="598.9785" x2="907.0928" y2="598.9785">
				<stop  offset="0" style="stop-color:#D1D3D4"/>
				<stop  offset="0.5" style="stop-color:#FFFFFF"/>
				<stop  offset="1" style="stop-color:#D1D3D4"/>
			</linearGradient>
			<path fill="url(#SVGID_123_)" d="M903.865,597.125l-18.197-5.04c-2.375-0.654-4.787,0.673-5.455,2.938
				c-0.652,2.264,0.707,4.682,3.051,5.392l18.082,5.438c2.354,0.713,4.855-0.684,5.559-3.121
				C907.623,600.301,906.223,597.775,903.865,597.125z"/>
			<linearGradient id="SVGID_124_" gradientUnits="userSpaceOnUse" x1="885.4912" y1="577.5039" x2="912.79" y2="577.5039">
				<stop  offset="0" style="stop-color:#D1D3D4"/>
				<stop  offset="0.5" style="stop-color:#FFFFFF"/>
				<stop  offset="1" style="stop-color:#D1D3D4"/>
			</linearGradient>
			<path fill="url(#SVGID_124_)" d="M909.328,575.093l-18.441-4.044c-2.4-0.518-4.771,0.932-5.283,3.231
				c-0.545,2.297,0.947,4.635,3.334,5.22l18.352,4.439c2.385,0.585,4.799-0.947,5.387-3.413
				C913.229,578.048,911.729,575.613,909.328,575.093z"/>
			<linearGradient id="SVGID_125_" gradientUnits="userSpaceOnUse" x1="889.7793" y1="555.7578" x2="917.2803" y2="555.7578">
				<stop  offset="0" style="stop-color:#D1D3D4"/>
				<stop  offset="0.5" style="stop-color:#FFFFFF"/>
				<stop  offset="1" style="stop-color:#D1D3D4"/>
			</linearGradient>
			<path fill="url(#SVGID_125_)" d="M913.578,552.796l-18.633-3.035c-2.418-0.389-4.699,1.19-5.107,3.513
				c-0.389,2.326,1.197,4.578,3.619,5.028l18.566,3.438c2.404,0.452,4.77-1.205,5.186-3.706
				C917.648,555.535,916.012,553.186,913.578,552.796z"/>
			<linearGradient id="SVGID_126_" gradientUnits="userSpaceOnUse" x1="892.9063" y1="533.8027" x2="920.5615" y2="533.8027">
				<stop  offset="0" style="stop-color:#D1D3D4"/>
				<stop  offset="0.5" style="stop-color:#FFFFFF"/>
				<stop  offset="1" style="stop-color:#D1D3D4"/>
			</linearGradient>
			<path fill="url(#SVGID_126_)" d="M916.615,530.3l-18.773-2.019c-2.449-0.26-4.611,1.441-4.906,3.784
				c-0.279,2.343,1.461,4.507,3.889,4.826l18.727,2.423c2.441,0.322,4.676-1.464,4.975-3.979
				C920.842,532.818,919.047,530.555,916.615,530.3z"/>
			<linearGradient id="SVGID_127_" gradientUnits="userSpaceOnUse" x1="894.8789" y1="511.708" x2="922.624" y2="511.708">
				<stop  offset="0" style="stop-color:#D1D3D4"/>
				<stop  offset="0.5" style="stop-color:#FFFFFF"/>
				<stop  offset="1" style="stop-color:#D1D3D4"/>
			</linearGradient>
			<path fill="url(#SVGID_127_)" d="M918.436,507.68l-18.855-1.008c-2.455-0.127-4.549,1.689-4.691,4.045
				c-0.164,2.355,1.691,4.423,4.141,4.611l18.828,1.409c2.447,0.188,4.582-1.715,4.758-4.244
				C922.768,509.966,920.885,507.804,918.436,507.68z"/>
			<linearGradient id="SVGID_128_" gradientUnits="userSpaceOnUse" x1="895.6836" y1="489.5347" x2="923.4668" y2="489.5347">
				<stop  offset="0" style="stop-color:#D1D3D4"/>
				<stop  offset="0.5" style="stop-color:#FFFFFF"/>
				<stop  offset="1" style="stop-color:#D1D3D4"/>
			</linearGradient>
			<path fill="url(#SVGID_128_)" d="M919.043,484.996h-18.881c-2.453,0.006-4.463,1.929-4.479,4.29
				c-0.023,2.361,1.92,4.327,4.379,4.385l18.879,0.401c2.447,0.057,4.498-1.957,4.525-4.491
				C923.484,487.048,921.5,484.991,919.043,484.996z"/>
		</g>
		<linearGradient id="SVGID_129_" gradientUnits="userSpaceOnUse" x1="177.7773" y1="485" x2="822.2227" y2="485">
			<stop  offset="0" style="stop-color:#D1D3D4"/>
			<stop  offset="0.5" style="stop-color:#FFFFFF"/>
			<stop  offset="1" style="stop-color:#D1D3D4"/>
		</linearGradient>
		<path fill="url(#SVGID_129_)" d="M796.898,359.573c-16.226-38.37-39.465-72.829-69.054-102.418
			c-29.588-29.591-64.055-52.824-102.417-69.053c-39.73-16.805-81.93-25.325-125.424-25.325c-43.502,0-85.699,8.521-125.426,25.325
			c-38.375,16.229-72.829,39.462-102.426,69.053c-29.586,29.589-52.821,64.048-69.051,102.418
			c-16.806,39.727-25.324,81.927-25.324,125.425c0,43.5,8.519,85.698,25.324,125.424c16.229,38.366,39.465,72.829,69.051,102.421
			c29.597,29.588,64.051,52.822,102.426,69.051c39.727,16.805,81.924,25.329,125.426,25.329c43.494,0,85.693-8.524,125.424-25.329
			c38.362-16.229,72.829-39.463,102.417-69.051c29.589-29.592,52.828-64.055,69.054-102.421
			c16.805-39.726,25.324-81.924,25.324-125.424C822.223,441.5,813.703,399.3,796.898,359.573z M623.176,776.591
			c-39.014,16.499-80.451,24.866-123.172,24.866c-42.727,0-84.172-8.367-123.182-24.866
			c-37.684-15.944-71.527-38.758-100.592-67.824c-29.063-29.065-51.885-62.905-67.82-100.591
			c-16.502-39.014-24.865-80.453-24.865-123.178c0-42.724,8.363-84.163,24.865-123.177c15.936-37.686,38.758-71.529,67.82-100.591
			c29.064-29.063,62.908-51.884,100.592-67.821c39.01-16.5,80.455-24.867,123.182-24.867c42.721,0,84.158,8.367,123.172,24.867
			c37.686,15.938,71.531,38.758,100.59,67.821c29.068,29.062,51.889,62.905,67.822,100.591
			c16.5,39.014,24.869,80.453,24.869,123.177c0,42.725-8.369,84.164-24.869,123.178c-15.934,37.686-38.754,71.525-67.822,100.591
			C694.707,737.833,660.861,760.646,623.176,776.591z"/>
	</g>
</g>
</svg>
