<?xml version="1.0" encoding="utf-8"?>
<!-- Generator: Adobe Illustrator 16.0.0, SVG Export Plug-In . SVG Version: 6.00 Build 0)  -->
<!DOCTYPE svg PUBLIC "-//W3C//DTD SVG 1.1//EN" "http://www.w3.org/Graphics/SVG/1.1/DTD/svg11.dtd">
<svg version="1.1" id="Layer_1" xmlns="http://www.w3.org/2000/svg" xmlns:xlink="http://www.w3.org/1999/xlink" x="0px" y="0px"
	 width="300px" height="300px" viewBox="0 0 300 300" enable-background="new 0 0 300 300" xml:space="preserve">
<g>
	<path fill="#414042" d="M121,192.5c-9.673,0-9.673,15,0,15S130.673,192.5,121,192.5z"/>
	<path fill="#414042" d="M271.303,169.697c-20-18.667-40-37.334-60-56c-4.715-4.401-12.803-1.407-12.803,5.303
		c0,7.833,0,15.667,0,23.5c-40.834,0-61.667,0-102.5,0c-4.088,0-7.5,3.412-7.5,7.5c0,4.582,0,9.165,0,13.747
		C74.662,150.832,60.823,137.916,46.985,125C60.823,112.084,74.662,99.168,88.5,86.253c0,4.582,0,9.165,0,13.747
		c0,4.088,3.412,7.5,7.5,7.5c21.667,0,33.333,0,55,0c9.673,0,9.673-15,0-15c-19.167,0-28.333,0-47.5,0c0-7.833,0-15.667,0-23.5
		c0-6.71-8.088-9.705-12.803-5.303c-20,18.667-40,37.333-60,56c-2.914,2.719-2.914,7.887,0,10.606c20,18.667,40,37.333,60,56
		c4.715,4.402,12.803,1.408,12.803-5.303c0-7.834,0-15.666,0-23.5c40.833,0,61.666,0,102.5,0c4.088,0,7.5-3.412,7.5-7.5
		c0-4.583,0-9.165,0-13.747c13.838,12.916,27.677,25.831,41.515,38.747c-13.838,12.916-27.677,25.832-41.515,38.747
		c0-4.582,0-9.165,0-13.747c0-4.088-3.412-7.5-7.5-7.5c-21.666,0-33.334,0-55,0c-9.673,0-9.673,15,0,15c19.166,0,28.334,0,47.5,0
		c0,7.834,0,15.666,0,23.5c0,6.711,8.088,9.705,12.803,5.303c20-18.666,40-37.333,60-56
		C274.217,177.584,274.217,172.416,271.303,169.697z"/>
	<path fill="#414042" d="M181,107.5c9.673,0,9.673-15,0-15S171.327,107.5,181,107.5z"/>
</g>
</svg>
