<?xml version="1.0" encoding="utf-8"?>
<!-- Generator: Adobe Illustrator 16.0.0, SVG Export Plug-In . SVG Version: 6.00 Build 0)  -->
<!DOCTYPE svg PUBLIC "-//W3C//DTD SVG 1.1//EN" "http://www.w3.org/Graphics/SVG/1.1/DTD/svg11.dtd">
<svg version="1.1" id="Layer_1" xmlns="http://www.w3.org/2000/svg" xmlns:xlink="http://www.w3.org/1999/xlink" x="0px" y="0px"
	 width="300px" height="300px" viewBox="0 0 300 300" enable-background="new 0 0 300 300" xml:space="preserve">
<g>
	<path fill="#009444" d="M265.327,86.245V56.581c0-19.037-15.938-34.977-35.42-34.977H48.385c-22.137,0-39.846,17.71-39.846,39.847
		l0,0l0,0V237.22c0,22.58,18.594,41.176,41.175,41.176h200.562c23.021,0,41.173-18.596,41.173-41.176V124.764
		C291.893,107.497,280.822,92.443,265.327,86.245z M48.385,39.314h181.522c9.742,0,17.711,7.969,17.711,17.267v27.007h-35.419
		H48.385c-12.397,0-22.137-10.182-22.137-22.137C26.248,49.055,35.987,39.314,48.385,39.314z M250.717,260.686H49.713
		c-12.84,0-23.466-10.626-23.466-23.466V94.657c6.2,4.427,14.168,6.642,22.137,6.642h163.814h38.518
		c12.839,0,23.465,10.625,23.465,23.465v27.45h-36.747c-18.595,0-34.09,15.054-34.09,33.206s15.495,33.205,34.09,33.205h36.747
		v18.595C274.182,250.06,263.556,260.686,250.717,260.686z M274.182,169.923v30.992h-36.747c-8.854,0-16.381-7.083-16.381-15.495
		s7.526-15.497,16.381-15.497H274.182z"/>
	<circle fill="#009444" cx="238.764" cy="185.419" r="8.855"/>
	<rect x="43.958" y="52.597" fill="#009444" width="185.95" height="17.709"/>
</g>
</svg>
